<svg id="Layer_1" data-name="Layer 1" xmlns="http://www.w3.org/2000/svg" xmlns:xlink="http://www.w3.org/1999/xlink" viewBox="0 0 356.9 151.2"><defs><style>.cls-1{fill:#fcfcfc;}.cls-2{fill:url(#linear-gradient);}.cls-3{clip-path:url(#clip-path);}.cls-4{clip-path:url(#clip-path-2);}.cls-5{clip-path:url(#clip-path-3);}.cls-6{clip-path:url(#clip-path-4);}</style><linearGradient id="linear-gradient" x1="357.42" y1="141.46" x2="1.42" y2="10.46" gradientUnits="userSpaceOnUse"><stop offset="0" stop-color="#ee4a6a"/><stop offset="0.01" stop-color="#ee4b6a"/><stop offset="0.28" stop-color="#f26b6a"/><stop offset="0.54" stop-color="#f4826b"/><stop offset="0.79" stop-color="#f5906b"/><stop offset="1" stop-color="#f6956b"/></linearGradient><clipPath id="clip-path" transform="translate(0 0)"><path class="cls-1" d="M107,67.29l-0.66,0a15.35,15.35,0,0,0,6.77,22.31,5.29,5.29,0,0,1-1.33-2.91,1,1,0,0,1,.41-1.12,20.27,20.27,0,0,0,3-.79,1.19,1.19,0,0,0,.73-1.3c-0.2-.43-0.33-0.49,0-0.82a0.5,0.5,0,0,0-.27-0.89,2.05,2.05,0,0,0,.73-0.73,4.91,4.91,0,0,0-.38-0.92,0.71,0.71,0,0,1,.33-0.7,0.65,0.65,0,0,0,.08-1.12,1.79,1.79,0,0,1-1.33-1.63s0.14-1.08.15-1.27a5,5,0,0,0-.4-2.14,6.48,6.48,0,0,0-.5-0.88,3.74,3.74,0,0,0-.57-0.86s0.88-1.75-.21-2.44a0.54,0.54,0,0,1-.26.56A25.08,25.08,0,0,1,111,68.5a9.61,9.61,0,0,0-3.75-1.21H107"/></clipPath><clipPath id="clip-path-2" transform="translate(0 0)"><path class="cls-1" d="M109.55,63.76a4.35,4.35,0,0,0,2.26.93l0.05,0a5.89,5.89,0,0,1,1.21-.53,2.88,2.88,0,0,1,1.9.69,5.9,5.9,0,0,0,2.65,1,2.63,2.63,0,0,0,2.93-2.2,3.86,3.86,0,0,1,1.31-2.11,8.49,8.49,0,0,1,1.18-.83,15.37,15.37,0,0,0-13.5,3.05"/></clipPath><clipPath id="clip-path-3" transform="translate(0 0)"><path class="cls-1" d="M122.38,86.86c-0.57,1-1.28,1.87-4.1.94-0.95-.31-1.18,1.73-2,2.76L117,90.77a15.47,15.47,0,0,0,2.33.18,15.27,15.27,0,0,0,7.85-2.16,5.86,5.86,0,0,1-2.35-1.49,1.72,1.72,0,0,0-1.41-1,1.22,1.22,0,0,0-1,.6"/></clipPath><clipPath id="clip-path-4" transform="translate(0 0)"><path class="cls-1" d="M123.45,64.46c-0.93.79-.61,3-0.61,3-1.58,2.24.37,5.47,0.73,6.36S123,76.48,122.94,77s0.44,0.63,1,.57,0.68,0.49.62,0.87a0.24,0.24,0,0,0,.05.19,0.55,0.55,0,0,0,.19.14,1.28,1.28,0,0,0,.26.1l0.28,0a1,1,0,0,0,.23,0l0.07,0h0v0a0.23,0.23,0,0,1,0,.1l0,0.09a1.09,1.09,0,0,1-.12.17l-0.13.14a0.53,0.53,0,0,0-.09.11,0.66,0.66,0,0,0,.25.74,1,1,0,0,1,.75.78,1.21,1.21,0,0,0,.67,1.1,1.41,1.41,0,0,0,.43.06,13.58,13.58,0,0,0,1.69-.16c0.63-.08,1.2-0.17,1.37-0.16,0.51,0,.65.77,0.4,1.55a30,30,0,0,1-1.78,4,15.35,15.35,0,0,0-2-25.08,8.14,8.14,0,0,0-3.65,2.09"/></clipPath></defs><title>iok-big</title><rect class="cls-2" width="356.9" height="151.2"/><polygon class="cls-1" points="143.81 71.8 143.81 81.83 145.42 81.83 145.42 82.88 140.92 82.88 140.92 81.83 142.52 81.83 142.52 71.8 140.92 71.8 140.92 70.76 145.42 70.76 145.42 71.8 143.81 71.8"/><path class="cls-1" d="M153.44,83h0a6.23,6.23,0,1,1,0-12.45h0a6.23,6.23,0,1,1,0,12.45m5-6.23a4.74,4.74,0,0,0-5-5.08,5.08,5.08,0,1,0,5,5.08" transform="translate(0 0)"/><path class="cls-1" d="M173.62,81.83v1h-2.37l-4-5.46c-0.43.2-.88,0.42-1.38,0.61l-1.54.66v3.14h1.56v1h-4.52v-1H163v-10h-1.63v-1h4.48v1h-1.56v5.66l1.58-.65c3.52-1.3,4.68-3.19,5.13-4.58a0.8,0.8,0,0,1-.55-0.78,0.85,0.85,0,0,1,.93-0.86,0.86,0.86,0,0,1,.85.76c0.2,1.46-.83,3.64-4,5.5l3.65,5h1.69Z" transform="translate(0 0)"/><path class="cls-1" d="M188.95,81.19v1.69h-3V81.93A3.63,3.63,0,0,1,183.14,83c-2.71,0-4.27-1.76-4.27-4.53s1.56-4.43,4.13-4.43a3.87,3.87,0,0,1,2.77,1V71.62H184.5V69.93h3.3V81.19h1.15Zm-3.3-1.41V77.43a2.21,2.21,0,0,0-2.28-1.61c-1.53,0-2.46.95-2.46,2.74s1,2.74,2.37,2.74a2.2,2.2,0,0,0,2.36-1.53" transform="translate(0 0)"/><path class="cls-1" d="M198.33,79.06l-0.13.13H191.9a2.24,2.24,0,0,0,2.34,2.14,1.92,1.92,0,0,0,1.89-1h2c-0.25,1.43-1.66,2.74-3.9,2.74a4.48,4.48,0,0,1,0-9c2.06,0,4.48,1.51,4.09,5m-2-1.23a2.12,2.12,0,0,0-2.11-2.08,2.39,2.39,0,0,0-2.32,2.08h4.43Z" transform="translate(0 0)"/><path class="cls-1" d="M216,77.76c0,3.29-2.23,5.28-5.65,5.28A6.09,6.09,0,0,1,204,76.74c0-3.52,2.52-6.14,6.39-6.14,3.55,0,5.58,2,5.35,4.35a1.28,1.28,0,0,1-1.31,1.23A1.19,1.19,0,0,1,213.18,75a1.1,1.1,0,0,1,.47-1c-0.12-.81-1.51-1.59-3.27-1.59a4.08,4.08,0,0,0-4.3,4.4,4.17,4.17,0,0,0,4.25,4.4c2.08,0,3.49-1,3.74-2.46h-3.89V77.2H216v0.56Z" transform="translate(0 0)"/><path class="cls-1" d="M222.21,81.07v1.69a4.16,4.16,0,0,1-1.66.28c-1.49,0-2.54-1-2.54-3V71.62h-1.25V69.93H220V80a1.11,1.11,0,0,0,1.08,1.35,2.89,2.89,0,0,0,1.11-.23" transform="translate(0 0)"/><path class="cls-1" d="M232.24,78.51a4.63,4.63,0,0,1-9.27,0c0-2.54,1.59-4.43,4.63-4.43s4.63,1.89,4.63,4.43m-2,0a2.59,2.59,0,1,0-2.59,2.74,2.49,2.49,0,0,0,2.59-2.74" transform="translate(0 0)"/><path class="cls-1" d="M243.05,78.51c0,2.77-1.56,4.53-4.27,4.53a3.68,3.68,0,0,1-2.92-1.23l-0.32,1.06h-1.31V71.62H233V69.93h3v5.31a3.79,3.79,0,0,1,2.94-1.16c2.57,0,4.14,1.71,4.14,4.43m-2,0c0-1.79-.93-2.74-2.49-2.74a2.22,2.22,0,0,0-2.29,1.71v2.11a2.19,2.19,0,0,0,2.39,1.66c1.36,0,2.39-.95,2.39-2.74" transform="translate(0 0)"/><path class="cls-1" d="M252.88,79.06l-0.13.13h-6.29a2.24,2.24,0,0,0,2.34,2.14,1.92,1.92,0,0,0,1.89-1h2C252.45,81.73,251,83,248.8,83a4.48,4.48,0,0,1,0-9c2.06,0,4.48,1.51,4.09,5m-2-1.23a2.12,2.12,0,0,0-2.11-2.08,2.39,2.39,0,0,0-2.32,2.08h4.43Z" transform="translate(0 0)"/><path class="cls-1" d="M107,67.29l-0.66,0a15.35,15.35,0,0,0,6.77,22.31,5.29,5.29,0,0,1-1.33-2.91,1,1,0,0,1,.41-1.12,20.27,20.27,0,0,0,3-.79,1.19,1.19,0,0,0,.73-1.3c-0.2-.43-0.33-0.49,0-0.82a0.5,0.5,0,0,0-.27-0.89,2.05,2.05,0,0,0,.73-0.73,4.91,4.91,0,0,0-.38-0.92,0.71,0.71,0,0,1,.33-0.7,0.65,0.65,0,0,0,.08-1.12,1.79,1.79,0,0,1-1.33-1.63s0.14-1.08.15-1.27a5,5,0,0,0-.4-2.14,6.48,6.48,0,0,0-.5-0.88,3.74,3.74,0,0,0-.57-0.86s0.88-1.75-.21-2.44a0.54,0.54,0,0,1-.26.56A25.08,25.08,0,0,1,111,68.5a9.61,9.61,0,0,0-3.75-1.21H107" transform="translate(0 0)"/><g class="cls-3"><rect class="cls-1" x="98.44" y="70.33" width="24.1" height="16.29" transform="translate(16.01 175.63) rotate(-81.19)"/></g><path class="cls-1" d="M109.55,63.76a4.35,4.35,0,0,0,2.26.93l0.05,0a5.89,5.89,0,0,1,1.21-.53,2.88,2.88,0,0,1,1.9.69,5.9,5.9,0,0,0,2.65,1,2.63,2.63,0,0,0,2.93-2.2,3.86,3.86,0,0,1,1.31-2.11,8.49,8.49,0,0,1,1.18-.83,15.37,15.37,0,0,0-13.5,3.05" transform="translate(0 0)"/><g class="cls-4"><rect class="cls-1" x="112.44" y="56.01" width="7.72" height="14.22" transform="translate(36.12 168.38) rotate(-81.19)"/></g><path class="cls-1" d="M122.38,86.86c-0.57,1-1.28,1.87-4.1.94-0.95-.31-1.18,1.73-2,2.76L117,90.77a15.47,15.47,0,0,0,2.33.18,15.27,15.27,0,0,0,7.85-2.16,5.86,5.86,0,0,1-2.35-1.49,1.72,1.72,0,0,0-1.41-1,1.22,1.22,0,0,0-1,.6" transform="translate(0 0)"/><g class="cls-5"><rect class="cls-1" x="118.56" y="82.85" width="6.31" height="11.49" transform="translate(15.52 195.31) rotate(-81.19)"/></g><path class="cls-1" d="M123.45,64.46c-0.93.79-.61,3-0.61,3-1.58,2.24.37,5.47,0.73,6.36S123,76.48,122.94,77s0.44,0.63,1,.57,0.68,0.49.62,0.87a0.24,0.24,0,0,0,.05.19,0.55,0.55,0,0,0,.19.14,1.28,1.28,0,0,0,.26.1l0.28,0a1,1,0,0,0,.23,0l0.07,0h0v0a0.23,0.23,0,0,1,0,.1l0,0.09a1.09,1.09,0,0,1-.12.17l-0.13.14a0.53,0.53,0,0,0-.09.11,0.66,0.66,0,0,0,.25.74,1,1,0,0,1,.75.78,1.21,1.21,0,0,0,.67,1.1,1.41,1.41,0,0,0,.43.06,13.58,13.58,0,0,0,1.69-.16c0.63-.08,1.2-0.17,1.37-0.16,0.51,0,.65.77,0.4,1.55a30,30,0,0,1-1.78,4,15.35,15.35,0,0,0-2-25.08,8.14,8.14,0,0,0-3.65,2.09" transform="translate(0 0)"/><g class="cls-6"><rect class="cls-1" x="115.38" y="68.11" width="25.18" height="13.6" transform="translate(52.05 202.28) rotate(-89.55)"/></g></svg>