<?xml version="1.0" encoding="utf-8"?>
<!-- Generator: Adobe Illustrator 19.2.0, SVG Export Plug-In . SVG Version: 6.00 Build 0)  -->
<svg version="1.1" id="Layer_1" xmlns="http://www.w3.org/2000/svg" xmlns:xlink="http://www.w3.org/1999/xlink" x="0px" y="0px"
	 viewBox="0 0 356.9 151.2" style="enable-background:new 0 0 356.9 151.2;" xml:space="preserve">
<style type="text/css">
	.st0{fill:#EF5A6C;}
	.st1{clip-path:url(#SVGID_2_);fill:url(#SVGID_3_);}
	.st2{clip-path:url(#SVGID_5_);fill:url(#SVGID_6_);}
	.st3{clip-path:url(#SVGID_8_);fill:url(#SVGID_9_);}
	.st4{clip-path:url(#SVGID_11_);fill:url(#SVGID_12_);}
</style>
<polygon class="st0" points="134,72.1 134,85 136.1,85 136.1,86.4 130.3,86.4 130.3,85 132.3,85 132.3,72.1 130.3,72.1 130.3,70.8 
	136.1,70.8 136.1,72.1 "/>
<g>
	<path class="st0" d="M146.4,86.6L146.4,86.6c-4.8,0-8.1-3.3-8.1-8c0-4.8,3.3-8,8.1-8h0c4.9,0,8.1,3.2,8.1,8
		C154.4,83.3,151.2,86.6,146.4,86.6 M152.8,78.6c0-4.1-2.8-6.5-6.4-6.5c-3.6,0-6.4,2.4-6.4,6.5c0,4.1,2.9,6.5,6.4,6.5
		C150,85.1,152.8,82.7,152.8,78.6"/>
	<path class="st0" d="M172.3,85v1.3h-3l-5.1-7c-0.6,0.3-1.1,0.5-1.8,0.8l-2,0.9v4h2v1.3h-5.8V85h2.1V72.1h-2.1v-1.3h5.8v1.3h-2v7.3
		l2-0.8c4.5-1.7,6-4.1,6.6-5.9c-0.4-0.1-0.7-0.5-0.7-1c0-0.7,0.5-1.1,1.2-1.1c0.6,0,1,0.4,1.1,1c0.3,1.9-1.1,4.7-5.1,7.1l4.7,6.4
		H172.3z"/>
	<path class="st0" d="M192,84.2v2.2h-3.9v-1.2c-0.8,0.9-1.9,1.4-3.6,1.4c-3.5,0-5.5-2.3-5.5-5.8c0-3.5,2-5.7,5.3-5.7
		c1.5,0,2.7,0.4,3.6,1.3v-4.4h-1.6v-2.2h4.2v14.5H192z M187.7,82.4v-3c-0.3-1.2-1.4-2.1-2.9-2.1c-2,0-3.2,1.2-3.2,3.5s1.3,3.5,3,3.5
		C186.3,84.3,187.4,83.6,187.7,82.4"/>
	<path class="st0" d="M204,81.4l-0.2,0.2h-8.1c0.2,1.7,1.3,2.8,3,2.8c1.2,0,2.1-0.5,2.4-1.3h2.6c-0.3,1.8-2.1,3.5-5,3.5
		c-3.7,0-5.7-2.5-5.7-5.8c0-3.3,2.2-5.7,5.7-5.7C201.4,75,204.5,77,204,81.4 M201.5,79.9c-0.2-2-1.6-2.7-2.7-2.7c-1.4,0-2.6,1-3,2.7
		H201.5z"/>
	<path class="st0" d="M226.6,79.8c0,4.2-2.9,6.8-7.2,6.8c-4.8,0-8.1-3.5-8.1-8.1c0-4.5,3.2-7.9,8.2-7.9c4.6,0,7.2,2.6,6.9,5.6
		c-0.1,0.9-0.7,1.6-1.7,1.6c-0.9,0-1.6-0.7-1.6-1.5c0-0.4,0.1-0.9,0.6-1.3c-0.1-1-1.9-2-4.2-2c-3.1,0-5.5,2-5.5,5.7
		c0,3.7,2.7,5.7,5.5,5.7c2.7,0,4.5-1.3,4.8-3.2h-5v-2h7.4V79.8z"/>
	<path class="st0" d="M234.7,84v2.2c-0.7,0.3-1.3,0.4-2.1,0.4c-1.9,0-3.3-1.3-3.3-3.9V71.9h-1.6v-2.2h4.2v12.9
		c0,1.2,0.6,1.7,1.4,1.7C233.6,84.3,234.1,84.3,234.7,84"/>
	<path class="st0" d="M247.5,80.7c0,3.3-2.1,5.8-5.9,5.8c-3.9,0-5.9-2.5-5.9-5.8c0-3.3,2-5.7,5.9-5.7
		C245.5,75,247.5,77.5,247.5,80.7 M244.9,80.8c0-2.2-1.4-3.5-3.3-3.5c-2,0-3.3,1.3-3.3,3.5c0,2.2,1.3,3.5,3.3,3.5
		C243.5,84.3,244.9,83,244.9,80.8"/>
	<path class="st0" d="M261.4,80.7c0,3.6-2,5.8-5.5,5.8c-1.7,0-3-0.7-3.8-1.6l-0.4,1.4h-1.7V71.9h-1.6v-2.2h3.8v6.8
		c0.9-1,2.2-1.5,3.8-1.5C259.4,75,261.4,77.2,261.4,80.7 M258.8,80.8c0-2.3-1.2-3.5-3.2-3.5c-1.6,0-2.6,0.9-2.9,2.2v2.7
		c0.3,1.3,1.3,2.1,3.1,2.1C257.5,84.3,258.8,83.1,258.8,80.8"/>
	<path class="st0" d="M274,81.4l-0.2,0.2h-8.1c0.2,1.7,1.3,2.8,3,2.8c1.2,0,2.1-0.5,2.4-1.3h2.6c-0.3,1.8-2.1,3.5-5,3.5
		c-3.7,0-5.7-2.5-5.7-5.8c0-3.3,2.2-5.7,5.7-5.7C271.4,75,274.5,77,274,81.4 M271.5,79.9c-0.2-2-1.6-2.7-2.7-2.7c-1.4,0-2.6,1-3,2.7
		H271.5z"/>
</g>
<g>
	<defs>
		<path id="SVGID_1_" d="M86.8,66.3c-0.3,0-0.5,0-0.9,0.1c-2,3.1-3.1,6.7-3.1,10.6c0,8.1,4.8,15,11.8,18c-0.9-1.2-1.6-2.5-1.7-3.7
			c0-0.4,0-1.3,0.5-1.4c0.6-0.1,3.2-0.6,3.8-1c0.7-0.4,1.2-1.1,0.9-1.7c-0.3-0.6-0.4-0.6,0-1.1c0.5-0.4,0.2-1-0.4-1.1
			c0,0,0.9-0.6,0.9-0.9c0-0.4-0.5-0.9-0.5-1.2c0-0.3,0-0.6,0.4-0.9c0.4-0.3,0.8-1,0.1-1.4c-0.7-0.4-1.5-0.5-1.7-2.1
			c0,0,0.2-1.4,0.2-1.6c0-0.9-0.2-1.9-0.5-2.8c-0.2-0.4-0.4-0.8-0.6-1.1c-0.2-0.3-0.4-0.8-0.7-1.1c0,0,1.1-2.2-0.3-3.1
			c0,0,0,0.6-0.3,0.7c-0.2,0-1.5-0.8-3-1.5c-1.6-0.8-3.4-1.5-4.8-1.5C86.9,66.3,86.9,66.3,86.8,66.3"/>
	</defs>
	<clipPath id="SVGID_2_">
		<use xlink:href="#SVGID_1_"  style="overflow:visible;"/>
	</clipPath>
	
		<linearGradient id="SVGID_3_" gradientUnits="userSpaceOnUse" x1="-843.5303" y1="813.0886" x2="-843.3436" y2="813.0886" gradientTransform="matrix(-168.1693 -26.0662 26.0662 -168.1693 -162933.2188 114833.5234)">
		<stop  offset="0" style="stop-color:#EE4A6A"/>
		<stop  offset="1.095146e-02" style="stop-color:#EE4B6A"/>
		<stop  offset="0.2808" style="stop-color:#F26B6A"/>
		<stop  offset="0.5414" style="stop-color:#F4826B"/>
		<stop  offset="0.7864" style="stop-color:#F5906B"/>
		<stop  offset="1" style="stop-color:#F6956B"/>
	</linearGradient>
	<polygon class="st1" points="103.9,67 83.2,63.8 78.5,94.4 99.2,97.6 	"/>
</g>
<g>
	<defs>
		<path id="SVGID_4_" d="M90,61.8c0.8,0.5,2.3,1.4,2.9,1.2c0,0,0,0,0.1,0c0.5-0.2,1-0.6,1.6-0.7c0.9-0.1,1.7,0.4,2.4,0.9
			c1,0.7,2.2,1.2,3.4,1.3c1.9,0.2,3.4-1,3.8-2.8c0.2-1.1,0.9-2,1.7-2.7c0.5-0.4,1-0.7,1.5-1.1c-1.5-0.4-3.1-0.6-4.8-0.6
			C97.8,57.3,93.4,59,90,61.8"/>
	</defs>
	<clipPath id="SVGID_5_">
		<use xlink:href="#SVGID_4_"  style="overflow:visible;"/>
	</clipPath>
	
		<linearGradient id="SVGID_6_" gradientUnits="userSpaceOnUse" x1="-843.4482" y1="812.5461" x2="-843.2615" y2="812.5461" gradientTransform="matrix(-176.8555 -27.4126 27.4126 -176.8555 -171322.1875 120646.4688)">
		<stop  offset="0" style="stop-color:#EE4A6A"/>
		<stop  offset="1.095146e-02" style="stop-color:#EE4B6A"/>
		<stop  offset="0.2808" style="stop-color:#F26B6A"/>
		<stop  offset="0.5414" style="stop-color:#F4826B"/>
		<stop  offset="0.7864" style="stop-color:#F5906B"/>
		<stop  offset="1" style="stop-color:#F6956B"/>
	</linearGradient>
	<polygon class="st2" points="108.5,57.5 90.4,54.7 88.9,64.5 106.9,67.3 	"/>
</g>
<g>
	<defs>
		<path id="SVGID_7_" d="M106.5,91.5c-0.7,1.3-1.6,2.4-5.3,1.2c-1.2-0.4-1.5,2.2-2.6,3.5c0.3,0.1,0.6,0.2,0.9,0.3c1,0.1,2,0.2,3,0.2
			c3.7,0,7.1-1,10.1-2.8c-1.2-0.4-2.7-1.3-3-1.9c-0.6-1-1.2-1.3-1.8-1.3C107.2,90.7,106.7,91,106.5,91.5"/>
	</defs>
	<clipPath id="SVGID_8_">
		<use xlink:href="#SVGID_7_"  style="overflow:visible;"/>
	</clipPath>
	
		<linearGradient id="SVGID_9_" gradientUnits="userSpaceOnUse" x1="-843.4564" y1="813.3321" x2="-843.2697" y2="813.3321" gradientTransform="matrix(-176.5469 -27.3648 27.3648 -176.5469 -171050.9688 120605.4297)">
		<stop  offset="0" style="stop-color:#EE4A6A"/>
		<stop  offset="1.095146e-02" style="stop-color:#EE4B6A"/>
		<stop  offset="0.2808" style="stop-color:#F26B6A"/>
		<stop  offset="0.5414" style="stop-color:#F4826B"/>
		<stop  offset="0.7864" style="stop-color:#F5906B"/>
		<stop  offset="1" style="stop-color:#F6956B"/>
	</linearGradient>
	<polygon class="st3" points="113.5,90.8 99,88.6 97.7,96.6 112.3,98.8 	"/>
</g>
<g>
	<defs>
		<path id="SVGID_10_" d="M107.9,62.7c-1.2,1-0.8,3.9-0.8,3.9c-2,2.9,0.5,7,0.9,8.2c0.5,1.1-0.7,3.3-0.8,4c-0.1,0.6,0.6,0.8,1.3,0.7
			c0.8-0.1,0.9,0.6,0.8,1.1c0,0.1,0,0.2,0.1,0.2c0.1,0.1,0.2,0.1,0.2,0.2c0.1,0.1,0.2,0.1,0.3,0.1c0.1,0,0.2,0.1,0.4,0.1
			c0.1,0,0.2,0,0.3,0c0,0,0.1,0,0.1,0h0l0,0c0,0,0,0.1,0,0.1c0,0,0,0.1-0.1,0.1c0,0.1-0.1,0.1-0.2,0.2c-0.1,0.1-0.1,0.1-0.2,0.2
			c0,0-0.1,0.1-0.1,0.1c-0.2,0.3,0.1,0.8,0.3,1c0.3,0.1,1,0.4,1,1c0,0.5,0.3,1.2,0.9,1.4c0.2,0.1,0.4,0.1,0.5,0.1
			c0.4,0,1.3-0.1,2.2-0.2c0.8-0.1,1.5-0.2,1.8-0.2c0.7,0,0.8,1,0.5,2c-0.5,1.5-1.4,3.5-2.3,5.2c4.4-3.6,7.2-9.1,7.2-15.2
			c0-7.2-3.9-13.6-9.7-17C109.9,60.7,108.5,62.1,107.9,62.7"/>
	</defs>
	<clipPath id="SVGID_11_">
		<use xlink:href="#SVGID_10_"  style="overflow:visible;"/>
	</clipPath>
	
		<linearGradient id="SVGID_12_" gradientUnits="userSpaceOnUse" x1="-843.1213" y1="812.6466" x2="-842.9346" y2="812.6466" gradientTransform="matrix(-222.5965 -1.7579 1.7579 -222.5965 -188983.2188 179486.3125)">
		<stop  offset="0" style="stop-color:#EE4A6A"/>
		<stop  offset="1.095146e-02" style="stop-color:#EE4B6A"/>
		<stop  offset="0.2808" style="stop-color:#F26B6A"/>
		<stop  offset="0.5414" style="stop-color:#F4826B"/>
		<stop  offset="0.7864" style="stop-color:#F5906B"/>
		<stop  offset="1" style="stop-color:#F6956B"/>
	</linearGradient>
	<polygon class="st4" points="122.5,60 105.1,59.9 104.8,92.2 122.3,92.4 	"/>
</g>
</svg>
