<?xml version="1.0" encoding="utf-8"?>
<!-- Generator: Adobe Illustrator 19.2.0, SVG Export Plug-In . SVG Version: 6.00 Build 0)  -->
<svg version="1.1" id="Layer_1" xmlns="http://www.w3.org/2000/svg" xmlns:xlink="http://www.w3.org/1999/xlink" x="0px" y="0px"
	 viewBox="0 0 356.9 151.2" style="enable-background:new 0 0 356.9 151.2;" xml:space="preserve">
<style type="text/css">
	.st0{fill:#008CFF;}
	.st1{fill:#4E8AC6;}
	.st2{fill:#353535;}
</style>
<g>
	<g>
		<g>
			<g>
				<path class="st0" d="M83.8,86.2c1.9,0.4,3,2.4,2.1,4.2c-2.8,5.8-9.2,9.1-15.8,7.9c-7.9-1.5-13.1-9.2-11.5-17.1
					c1.7-8.2,10.2-13.2,18.2-10.9c4.6,1.3,8.1,4.6,9.6,9c0.7,1.9-0.8,4-2.9,4h0c-1.3,0-2.4-0.8-2.8-2c-1-2.8-3.4-4.9-6.4-5.5
					c-4.8-0.9-9.4,2.3-10,7.2c-0.6,4.5,2.5,8.7,6.9,9.5c3.9,0.7,7.6-1.3,9.2-4.6C81.1,86.6,82.5,85.9,83.8,86.2L83.8,86.2z"/>
			</g>
			<path class="st0" d="M67.1,76.3l12.6-23.4c0.5-0.9,0.2-2-0.6-2.6v0c-1-0.7-2.3-0.4-2.9,0.6l-16.5,27"/>
			<path class="st0" d="M58.5,83.5l7.8-31.1c0.3-1.1,1.4-1.8,2.5-1.4h0c1,0.3,1.6,1.3,1.4,2.3l-5,24.8"/>
			<path class="st0" d="M58.4,84.8l0-27.3c0-1.1,0.9-2,2-2h0c1.1,0,1.9,0.9,2,1.9l1,27.3"/>
		</g>
		<path class="st1" d="M87.3,85.4"/>
	</g>
</g>
<g>
	<path class="st0" d="M189.4,61.8c-0.7-0.5-1.3-0.8-2.1-1.2l0,0.1h0c-2.6-1-5.5-2.2-8.6-2.2c-4.1,0-7.9,1.4-11,3.7l-21.2,14.3
		l21.9,15.4c2.9,2,6.4,3.1,10.2,3.1c4.6,0,8.8-1.7,12-4.5l20.9-14.7L189.4,61.8z M179,87.2c-5.8,0-10.6-4.7-10.6-10.6
		c0-5.8,4.7-10.6,10.6-10.6s10.6,4.7,10.6,10.6C189.6,82.5,184.9,87.2,179,87.2z"/>
</g>
<circle class="st2" cx="179" cy="76.7" r="3.5"/>
<g>
	
		<ellipse transform="matrix(7.605931e-02 -0.9971 0.9971 7.605931e-02 185.4037 367.9124)" class="st2" cx="291.2" cy="83.9" rx="2.9" ry="2.9"/>
	<g>
		<g>
			<g>
				<path class="st0" d="M302,86c1.9,0.4,3,2.4,2.1,4.2c-2.8,5.8-9.2,9.1-15.8,7.9c-7.9-1.5-13.1-9.2-11.5-17.2
					c1.7-8.2,10.2-13.2,18.2-10.9c4.6,1.3,8.1,4.6,9.6,9.1c0.7,1.9-0.8,4-2.9,4h0c-1.3,0-2.4-0.8-2.8-2c-1-2.8-3.4-4.9-6.4-5.5
					c-4.8-0.9-9.4,2.3-10.1,7.2c-0.6,4.5,2.5,8.7,6.9,9.5c3.9,0.7,7.6-1.3,9.2-4.6C299.3,86.4,300.6,85.8,302,86L302,86z"/>
			</g>
			<path class="st0" d="M285.2,76.1l12.7-23.4c0.5-0.9,0.2-2-0.6-2.6v0c-1-0.7-2.3-0.4-2.9,0.6l-16.5,27"/>
			<path class="st0" d="M276.6,83.3l7.8-31.1c0.3-1.1,1.4-1.8,2.5-1.4l0,0c1,0.3,1.6,1.3,1.4,2.3l-5,24.8"/>
			<path class="st0" d="M276.6,84.6l0-27.3c0-1.1,0.9-2,2-2l0,0c1.1,0,1.9,0.9,2,1.9l1,27.3"/>
		</g>
		<path class="st1" d="M305.5,85.2"/>
	</g>
</g>
<g>
	<path d="M241.1,75.6v-0.7h6.2v0.7H241.1z M241.1,78v-0.7h6.2V78H241.1z"/>
</g>
<g>
	<path d="M117.6,73.3v2.8h2.7v0.7h-2.7v2.8h-0.8v-2.8h-2.7v-0.7h2.7v-2.8H117.6z"/>
</g>
</svg>
