<?xml version="1.0" encoding="UTF-8"?>
<svg width="27px" height="28px" viewBox="0 0 27 28" version="1.1" xmlns="http://www.w3.org/2000/svg" xmlns:xlink="http://www.w3.org/1999/xlink">
    <!-- Generator: Sketch 48.1 (47250) - http://www.bohemiancoding.com/sketch -->
    <title>Shape</title>
    <desc>Created with Sketch.</desc>
    <defs></defs>
    <g id="New-New-Ontwerp" stroke="none" stroke-width="1" fill="none" fill-rule="evenodd" transform="translate(-1273.000000, -4454.000000)">
        <g id="Social" transform="translate(1117.000000, 4454.000000)" fill="#FFFFFF" fill-rule="nonzero">
            <g id="Stacked-Group">
                <g id="484-dribbble" transform="translate(156.000000, 0.000000)">
                    <path d="M13.3677419,-3.82602749e-15 C5.96645161,0.0301538462 -0.0299354839,6.33230769 -2.71050543e-20,14.0463077 C0.0299354839,21.7613846 6.07587097,28.0129231 13.4771613,27.9806154 C20.8784516,27.9504615 26.8748387,21.6483077 26.8449032,13.9343077 C26.8149677,6.21923077 20.7690323,-0.0312307692 13.3677419,-3.82602749e-15 Z M22.2668387,6.41415385 C23.872,8.442 24.8485161,11.0276923 24.8846452,13.8470769 C24.5068387,13.7663077 20.7132903,12.9801538 16.900129,13.496 C16.8196129,13.2924615 16.7370323,13.0867692 16.6513548,12.8810769 C16.411871,12.2995385 16.1538065,11.7212308 15.8843871,11.1536923 C20.1156129,9.33153846 22.0273548,6.75553846 22.2668387,6.41415385 Z M13.376,2.058 C16.288,2.04615385 18.9553548,3.17369231 20.9868387,5.03784615 C20.7824516,5.34476923 19.0658065,7.77 14.9956129,9.38 C13.1024516,5.78953846 11.0090323,2.84307692 10.6900645,2.40261538 C11.5509677,2.18076923 12.4510968,2.06230769 13.376,2.058 Z M8.50580645,3.21353846 C8.81032258,3.64430769 10.8696774,6.59615385 12.7834839,10.1069231 C7.42709677,11.6135385 2.70348387,11.6113846 2.19045161,11.6081538 C2.91922581,7.89707692 5.30477419,4.80415385 8.50580645,3.21353846 Z M1.95716129,14.0570769 C1.95716129,13.9353846 1.95922581,13.8126154 1.96232258,13.692 C2.46296774,13.7006154 8.0196129,13.7523077 13.7372903,11.942 C14.0676129,12.6096923 14.3845161,13.2881538 14.6745806,13.9655385 C14.523871,14.0107692 14.3731613,14.0592308 14.2234839,14.1098462 C8.31793548,16.1269231 5.19329032,21.5707692 4.93522581,22.0349231 C3.09677419,19.9241538 1.96954839,17.1252308 1.95716129,14.0570769 Z M13.4689032,25.9581538 C10.8190968,25.97 8.3716129,25.0373846 6.42270968,23.4661538 C6.62709677,23.0256923 8.93006452,18.3410769 15.387871,15.9653846 C15.4126452,15.9556923 15.4384516,15.9470769 15.4632258,15.9384615 C17.0890323,20.2924615 17.7692903,23.9432308 17.9437419,24.9910769 C16.5698065,25.6070769 15.0575484,25.9527692 13.4689032,25.9581538 Z M19.8668387,23.8893846 C19.7460645,23.1624615 19.1225806,19.6667692 17.6061935,15.3784615 C21.1974194,14.7635385 24.3571613,15.7316923 24.7494194,15.8587692 C24.2508387,19.1853846 22.4309677,22.0650769 19.8668387,23.8893846 Z" id="Shape"></path>
                </g>
            </g>
        </g>
    </g>
</svg>