<?xml version="1.0" encoding="UTF-8"?>
<svg width="28px" height="28px" viewBox="0 0 28 28" version="1.1" xmlns="http://www.w3.org/2000/svg" xmlns:xlink="http://www.w3.org/1999/xlink">
    <!-- Generator: Sketch 48.1 (47250) - http://www.bohemiancoding.com/sketch -->
    <title>208-facebook</title>
    <desc>Created with Sketch.</desc>
    <defs></defs>
    <g id="New-New-Ontwerp" stroke="none" stroke-width="1" fill="none" fill-rule="evenodd" transform="translate(-1117.000000, -4454.000000)">
        <g id="Social" transform="translate(1117.000000, 4454.000000)" fill="#FFFFFF" fill-rule="nonzero">
            <g id="Stacked-Group">
                <g id="208-facebook">
                    <path d="M24.1818182,0 L3.81818182,0 C1.70927273,0 0,1.70927273 0,3.81818182 L0,24.1818182 C0,26.2907273 1.70927273,28 3.81818182,28 L24.1818182,28 C26.2907273,28 28,26.2907273 28,24.1818182 L28,3.81818182 C28,1.70927273 26.2907273,0 24.1818182,0 Z M24.0061818,15.1607273 L20.16,15.1607273 L20.16,25.4545455 L16.2412727,25.4545455 L16.2412727,15.1607273 L13.5189091,15.1607273 L13.5189091,11.4545455 L16.2412727,11.4545455 C16.2412727,11.4545455 16.2412727,9.93618182 16.2412727,8.28927273 C16.2412727,5.80109091 17.85,3.51654545 21.5536364,3.51654545 C23.0541818,3.51654545 24.164,3.66036364 24.164,3.66036364 L24.0761818,7.12218182 C24.0761818,7.12218182 22.9447273,7.11072727 21.7114545,7.11072727 C20.3750909,7.11072727 20.1612727,7.72672727 20.1612727,8.74872727 C20.1612727,8.90018182 20.1612727,8.93454545 20.1612727,8.91927273 C20.1612727,9.19927273 20.1612727,9.88654545 20.1612727,11.4545455 L24.1818182,11.4545455 L24.0061818,15.1607273 Z" id="Shape"></path>
                </g>
            </g>
        </g>
    </g>
</svg>