<?xml version="1.0" encoding="UTF-8"?>
<svg width="28px" height="28px" viewBox="0 0 28 28" version="1.1" xmlns="http://www.w3.org/2000/svg" xmlns:xlink="http://www.w3.org/1999/xlink">
    <!-- Generator: Sketch 48.1 (47250) - http://www.bohemiancoding.com/sketch -->
    <title>494-linkedin</title>
    <desc>Created with Sketch.</desc>
    <defs></defs>
    <g id="New-New-Ontwerp" stroke="none" stroke-width="1" fill="none" fill-rule="evenodd" transform="translate(-1195.000000, -4454.000000)">
        <g id="Social" transform="translate(1117.000000, 4454.000000)" fill="#FFFFFF" fill-rule="nonzero">
            <g id="Stacked-Group">
                <g id="494-linkedin" transform="translate(78.000000, 0.000000)">
                    <path d="M23.3333333,0 L4.66666667,0 C2.0895,0 0,2.0895 0,4.66666667 L0,23.3333333 C0,25.9105 2.0895,28 4.66666667,28 L23.3333333,28 C25.9105,28 28,25.9105 28,23.3333333 L28,4.66666667 C28,2.0895 25.9105,0 23.3333333,0 Z M9.33333333,21 L5.83333333,21 L5.83333333,10.5 L9.33333333,10.5 L9.33333333,21 Z M7.58333333,9.33333333 C6.61733333,9.33333333 5.83333333,8.54933333 5.83333333,7.58333333 C5.83333333,6.61733333 6.61733333,5.83333333 7.58333333,5.83333333 C8.54933333,5.83333333 9.33333333,6.61733333 9.33333333,7.58333333 C9.33333333,8.54933333 8.54933333,9.33333333 7.58333333,9.33333333 Z M22.1666667,21 L18.6666667,21 L18.6666667,15.1666667 C18.6666667,13.8681667 18.2805,13.2253333 17.0741667,13.2253333 C15.1165,13.2253333 15.1666667,15.1666667 15.1666667,15.1666667 L15.1666667,21 L11.6666667,21 L11.6666667,10.5 L15.1666667,10.5 L15.1666667,12.25 C15.1666667,12.25 15.8188333,10.5 18.6666667,10.5 C20.8588333,10.5 22.1666667,12.1986667 22.1666667,15.1666667 L22.1666667,21 Z" id="Shape"></path>
                </g>
            </g>
        </g>
    </g>
</svg>