<?xml version="1.0" encoding="utf-8"?>
<!-- Generator: Adobe Illustrator 19.2.0, SVG Export Plug-In . SVG Version: 6.00 Build 0)  -->
<svg version="1.1" id="Layer_1" xmlns="http://www.w3.org/2000/svg" xmlns:xlink="http://www.w3.org/1999/xlink" x="0px" y="0px"
	 viewBox="0 0 283.2 120" style="enable-background:new 0 0 283.2 120;" xml:space="preserve">
<style type="text/css">
	.st0{fill:url(#SVGID_1_);}
	.st1{fill:#FFFFFF;}
	.st2{font-family:'Helvetica-Bold';}
	.st3{font-size:8.1809px;}
	.st4{font-family:'Helvetica-Light';}
	.st5{fill:#2779FC;}
	.st6{opacity:0.5;fill:#FFFFFF;enable-background:new    ;}
</style>
<linearGradient id="SVGID_1_" gradientUnits="userSpaceOnUse" x1="230.5718" y1="-27.9312" x2="52.5965" y2="147.9626">
	<stop  offset="0" style="stop-color:#2DA6DB"/>
	<stop  offset="1" style="stop-color:#343591"/>
</linearGradient>
<rect class="st0" width="283.2" height="120"/>
<g>
	<text transform="matrix(1 0 0 1 113.8026 69.7318)" class="st1 st2 st3">Platform</text>
	<text transform="matrix(1 0 0 1 147.0026 69.7318)" class="st1 st4 st3">Manager</text>
	<g>
		<circle class="st5" cx="103.4" cy="57.8" r="2.2"/>
		<path class="st6" d="M104.6,57.5v0.7v1.4c4.6-2.2,8.2,0,8.2,0v-1.7l0,0v-0.1l0,0v-1.7c-4.6,2.2-8.2,0-8.2,0V57.5"/>
		
			<ellipse transform="matrix(0.7071 -0.7071 0.7071 0.7071 -10.5596 90.0352)" class="st1" cx="103.4" cy="57.8" rx="2.2" ry="2.2"/>
		<circle class="st1" cx="114.1" cy="57.8" r="2.2"/>
		<ellipse transform="matrix(0.7071 -0.7071 0.7071 0.7071 -5.1858 92.2627)" class="st1" cx="108.8" cy="52.4" rx="2.2" ry="2.2"/>
		
			<ellipse transform="matrix(0.7071 -0.7071 0.7071 0.7071 -12.7577 95.3906)" class="st1" cx="108.8" cy="63.1" rx="2.2" ry="2.2"/>
	</g>
</g>
</svg>
