<?xml version="1.0" encoding="utf-8"?>
<!-- Generator: Adobe Illustrator 19.2.0, SVG Export Plug-In . SVG Version: 6.00 Build 0)  -->
<svg version="1.1" id="Layer_1" xmlns="http://www.w3.org/2000/svg" xmlns:xlink="http://www.w3.org/1999/xlink" x="0px" y="0px"
	 viewBox="0 0 283.2 120" style="enable-background:new 0 0 283.2 120;" xml:space="preserve">
<style type="text/css">
	.st0{fill:#232323;}
	.st1{font-family:'Helvetica-Bold';}
	.st2{font-size:8.1809px;}
	.st3{font-family:'Helvetica-Light';}
	.st4{fill:#2779FC;}
	.st5{opacity:0.5;fill:url(#SVGID_1_);}
	.st6{fill:url(#SVGID_2_);}
	.st7{fill:url(#SVGID_3_);}
	.st8{fill:url(#SVGID_4_);}
	.st9{fill:url(#SVGID_5_);}
</style>
<g>
	<text transform="matrix(1 0 0 1 113.8026 69.7318)" class="st0 st1 st2">Platform</text>
	<text transform="matrix(1 0 0 1 147.0026 69.7318)" class="st0 st3 st2">Manager</text>
	<g>
		<circle class="st4" cx="103.4" cy="57.8" r="2.2"/>
		
			<linearGradient id="SVGID_1_" gradientUnits="userSpaceOnUse" x1="104.6255" y1="62.16" x2="112.8543" y2="62.16" gradientTransform="matrix(1 0 0 -1 0 120.01)">
			<stop  offset="0" style="stop-color:#2DA6DB"/>
			<stop  offset="1" style="stop-color:#343591"/>
		</linearGradient>
		<path class="st5" d="M104.6,57.5v0.7v1.4c4.6-2.2,8.2,0,8.2,0v-1.7l0,0v-0.1l0,0v-1.7c-4.6,2.2-8.2,0-8.2,0V57.5"/>
		
			<linearGradient id="SVGID_2_" gradientUnits="userSpaceOnUse" x1="100.3832" y1="62.2927" x2="117.1144" y2="61.8343" gradientTransform="matrix(1 0 0 -1 0 120.01)">
			<stop  offset="0" style="stop-color:#2DA6DB"/>
			<stop  offset="1" style="stop-color:#343591"/>
		</linearGradient>
		<circle class="st6" cx="103.4" cy="57.8" r="2.2"/>
		
			<linearGradient id="SVGID_3_" gradientUnits="userSpaceOnUse" x1="100.3913" y1="62.5856" x2="117.1225" y2="62.1272" gradientTransform="matrix(1 0 0 -1 0 120.01)">
			<stop  offset="0" style="stop-color:#2DA6DB"/>
			<stop  offset="1" style="stop-color:#343591"/>
		</linearGradient>
		<circle class="st7" cx="114.1" cy="57.8" r="2.2"/>
		
			<linearGradient id="SVGID_4_" gradientUnits="userSpaceOnUse" x1="102.6227" y1="69.843" x2="117.1001" y2="64.6097" gradientTransform="matrix(1 0 0 -1 0 120.01)">
			<stop  offset="0" style="stop-color:#2DA6DB"/>
			<stop  offset="1" style="stop-color:#343591"/>
		</linearGradient>
		<circle class="st8" cx="108.8" cy="52.4" r="2.2"/>
		
			<linearGradient id="SVGID_5_" gradientUnits="userSpaceOnUse" x1="99.8747" y1="60.1363" x2="114.3521" y2="54.903" gradientTransform="matrix(1 0 0 -1 0 120.01)">
			<stop  offset="0" style="stop-color:#2DA6DB"/>
			<stop  offset="1" style="stop-color:#343591"/>
		</linearGradient>
		<circle class="st9" cx="108.8" cy="63.1" r="2.2"/>
	</g>
</g>
</svg>
