<?xml version="1.0" encoding="utf-8"?>
<!-- Generator: Adobe Illustrator 19.2.0, SVG Export Plug-In . SVG Version: 6.00 Build 0)  -->
<svg version="1.1" id="Layer_1" xmlns="http://www.w3.org/2000/svg" xmlns:xlink="http://www.w3.org/1999/xlink" x="0px" y="0px"
	 viewBox="0 0 141.7 141.7" style="enable-background:new 0 0 141.7 141.7;" xml:space="preserve">
<style type="text/css">
	.st0{clip-path:url(#SVGID_2_);}
	.st1{opacity:0.1;clip-path:url(#SVGID_4_);fill:#46B0FF;}
	.st2{fill:none;stroke:#E3EBFF;stroke-width:2;stroke-miterlimit:10;}
	.st3{fill:none;stroke:#E3EBFF;stroke-width:4;stroke-linecap:round;stroke-miterlimit:10;}
	.st4{clip-path:url(#SVGID_6_);}
	.st5{clip-path:url(#SVGID_8_);fill:#B1C8FF;}
	.st6{fill:none;stroke:#979797;stroke-miterlimit:10;}
	.st7{clip-path:url(#SVGID_10_);}
	.st8{clip-path:url(#SVGID_12_);fill:#CCE9FF;}
	.st9{clip-path:url(#SVGID_14_);}
	.st10{clip-path:url(#SVGID_16_);fill:none;stroke:#677596;stroke-width:4;stroke-miterlimit:10;}
	.st11{clip-path:url(#SVGID_18_);}
	.st12{clip-path:url(#SVGID_20_);fill:#CCE9FF;}
	.st13{fill:none;stroke:#677596;stroke-width:2;stroke-miterlimit:10;}
	.st14{clip-path:url(#SVGID_22_);}
	.st15{clip-path:url(#SVGID_24_);fill:#CCE9FF;}
	.st16{clip-path:url(#SVGID_26_);}
	.st17{clip-path:url(#SVGID_28_);fill:#677596;}
</style>
<g>
	<defs>
		<circle id="SVGID_1_" cx="70.5" cy="71.2" r="64"/>
	</defs>
	<clipPath id="SVGID_2_">
		<use xlink:href="#SVGID_1_"  style="overflow:visible;"/>
	</clipPath>
	<g class="st0">
		<defs>
			<rect id="SVGID_3_" x="-277.5" y="-386.8" width="1440" height="1024"/>
		</defs>
		<clipPath id="SVGID_4_">
			<use xlink:href="#SVGID_3_"  style="overflow:visible;"/>
		</clipPath>
		<rect x="1.5" y="2.2" class="st1" width="138" height="138"/>
	</g>
</g>
<g>
	<line class="st2" x1="46.5" y1="40.2" x2="97.5" y2="40.2"/>
	<path class="st3" d="M99.5,68.2c0-14.9-12.1-27-27-27s-27,12.1-27,27"/>
</g>
<g>
	<defs>
		<path id="SVGID_5_" d="M71.4,80v9.4h1.1V80c1.8-0.2,3.1-1.7,3.1-3.5c0-1.8-1.4-3.3-3.1-3.5V40.2l12.9,37.1L79,89.7l6.5,13.1H72.5
			v-0.1h-1.1v0.1H58.5L65,89.7l-6.5-12.3l12.9-37.1v32.9c-1.6,0.3-2.8,1.7-2.8,3.4C68.6,78.2,69.8,79.6,71.4,80z"/>
	</defs>
	<clipPath id="SVGID_6_">
		<use xlink:href="#SVGID_5_"  style="overflow:visible;"/>
	</clipPath>
	<g class="st4">
		<defs>
			<rect id="SVGID_7_" x="-277.5" y="-386.8" width="1440" height="1024"/>
		</defs>
		<clipPath id="SVGID_8_">
			<use xlink:href="#SVGID_7_"  style="overflow:visible;"/>
		</clipPath>
		<rect x="53.5" y="35.2" class="st5" width="37" height="72.6"/>
	</g>
</g>
<g>
	<path class="st6" d="M54.5,50.2"/>
</g>
<g>
	<defs>
		<rect id="SVGID_9_" x="69.5" y="37.2" width="6" height="6"/>
	</defs>
	<clipPath id="SVGID_10_">
		<use xlink:href="#SVGID_9_"  style="overflow:visible;"/>
	</clipPath>
	<g class="st7">
		<defs>
			<rect id="SVGID_11_" x="-277.5" y="-386.8" width="1440" height="1024"/>
		</defs>
		<clipPath id="SVGID_12_">
			<use xlink:href="#SVGID_11_"  style="overflow:visible;"/>
		</clipPath>
		<rect x="69.5" y="37.2" class="st8" width="6" height="6"/>
	</g>
</g>
<g>
	<defs>
		<rect id="SVGID_13_" x="69.5" y="37.2" width="6" height="6"/>
	</defs>
	<clipPath id="SVGID_14_">
		<use xlink:href="#SVGID_13_"  style="overflow:visible;"/>
	</clipPath>
	<g class="st9">
		<defs>
			<rect id="SVGID_15_" x="-277.5" y="-386.8" width="1440" height="1024"/>
		</defs>
		<clipPath id="SVGID_16_">
			<use xlink:href="#SVGID_15_"  style="overflow:visible;"/>
		</clipPath>
		<rect x="69.5" y="37.2" class="st10" width="6" height="6"/>
	</g>
</g>
<g>
	<defs>
		<circle id="SVGID_17_" cx="47.5" cy="40.2" r="2"/>
	</defs>
	<clipPath id="SVGID_18_">
		<use xlink:href="#SVGID_17_"  style="overflow:visible;"/>
	</clipPath>
	<g class="st11">
		<defs>
			<rect id="SVGID_19_" x="-277.5" y="-386.8" width="1440" height="1024"/>
		</defs>
		<clipPath id="SVGID_20_">
			<use xlink:href="#SVGID_19_"  style="overflow:visible;"/>
		</clipPath>
		<rect x="40.5" y="33.2" class="st12" width="14" height="14"/>
	</g>
</g>
<g>
	<circle class="st13" cx="47.5" cy="40.2" r="2"/>
</g>
<g>
	<defs>
		<circle id="SVGID_21_" cx="98.5" cy="40.2" r="2"/>
	</defs>
	<clipPath id="SVGID_22_">
		<use xlink:href="#SVGID_21_"  style="overflow:visible;"/>
	</clipPath>
	<g class="st14">
		<defs>
			<rect id="SVGID_23_" x="-277.5" y="-386.8" width="1440" height="1024"/>
		</defs>
		<clipPath id="SVGID_24_">
			<use xlink:href="#SVGID_23_"  style="overflow:visible;"/>
		</clipPath>
		<rect x="91.5" y="33.2" class="st15" width="14" height="14"/>
	</g>
</g>
<g>
	<circle class="st13" cx="98.5" cy="40.2" r="2"/>
	<path class="st6" d="M58.5,102.2"/>
</g>
<g>
	<defs>
		<path id="SVGID_25_" d="M64.5,90.3l-7,13.9h29l-7.1-13.9c-3.4-0.7-5.9-1.1-7.4-1.1S68,89.6,64.5,90.3z"/>
	</defs>
	<clipPath id="SVGID_26_">
		<use xlink:href="#SVGID_25_"  style="overflow:visible;"/>
	</clipPath>
	<g class="st16">
		<defs>
			<rect id="SVGID_27_" x="-277.5" y="-386.8" width="1440" height="1024"/>
		</defs>
		<clipPath id="SVGID_28_">
			<use xlink:href="#SVGID_27_"  style="overflow:visible;"/>
		</clipPath>
		<rect x="52.5" y="84.2" class="st17" width="39" height="24.9"/>
	</g>
</g>
</svg>
