<!--?xml version="1.0" encoding="utf-8"?-->
<!-- Generator: Adobe Illustrator 19.2.0, SVG Export Plug-In . SVG Version: 6.00 Build 0)  -->
<svg version="1.1" id="Laag_1" xmlns="http://www.w3.org/2000/svg" xmlns:xlink="http://www.w3.org/1999/xlink" x="0px" y="0px" viewBox="0 0 200.7 200.7" style="" xml:space="preserve">
<style type="text/css">
	.st0{opacity:0.46;fill:none;stroke:#74CEFD;stroke-width:5;stroke-linecap:round;stroke-miterlimit:10;enable-background:new    ;}
	.st1{opacity:0.15;fill:#5CF0FF;stroke:#74CEFD;stroke-miterlimit:10;enable-background:new    ;}
	.st2{fill:none;stroke:#74CEFD;stroke-width:4;stroke-linecap:round;stroke-linejoin:round;stroke-miterlimit:10;}
	.st3{fill:#F3FEFF;stroke:#5CF0FF;stroke-width:5;stroke-linecap:round;stroke-linejoin:round;stroke-miterlimit:10;}
	.st4{opacity:0.46;fill:none;stroke:#74CEFD;stroke-width:5;stroke-miterlimit:10;enable-background:new    ;}
	.st5{fill:none;stroke:#74CEFD;stroke-width:5;stroke-linecap:round;stroke-linejoin:round;stroke-miterlimit:10;}
	.st6{fill:#C0FFE2;stroke:#80E5B0;stroke-width:5;stroke-linejoin:round;stroke-miterlimit:10;}
	.st7{fill:none;stroke:#FCFCFC;stroke-width:5;stroke-linecap:round;stroke-linejoin:round;stroke-miterlimit:10;}
	
		.st8{opacity:0.67;fill:none;stroke:#FCFCFC;stroke-width:5;stroke-linecap:square;stroke-miterlimit:10;enable-background:new    ;}
	.st9{fill:none;stroke:#74CEFD;stroke-width:4;stroke-linejoin:round;stroke-miterlimit:10;}
</style>
<path class="st0 QKqcWTXp_0" d="M64,105.6L29.8,105.6"></path>
<path class="st1 QKqcWTXp_1" d="M77.2,64.5c-0.3,0.6-12.3,36.7,2.9,75c15.1,38.3,111.3-20.3,107.7-46.6C184.1,66.7,95.6,22.3,77.2,64.5z"></path>
<path class="st2 QKqcWTXp_2" d="M180.7,106.9L186,100.4"></path>
<path class="st2 QKqcWTXp_3" d="M180.1,101L186.6,106.3"></path>
<path class="st3 QKqcWTXp_4" width="72.3" height="43.5" d="M59.6 71.1 L131.9 71.1 L131.9 114.6 L59.6 114.6 Z"></path>
<path class="st4 QKqcWTXp_5" d="M131.6,77.1L99.5,101.7L94,97.4"></path>
<path class="st5 QKqcWTXp_6" d="M132,71.1L95.8,98.9L59.6,71.1"></path>
<path class="st5 QKqcWTXp_7" width="72.3" height="43.5" d="M59.6 71.1 L131.9 71.1 L131.9 114.6 L59.6 114.6 Z"></path>
<path class="st6 QKqcWTXp_8" d="M118.7,112.9A13.3,13.3 0,1,1 145.3,112.9A13.3,13.3 0,1,1 118.7,112.9"></path>
<g>
	<path class="st7 QKqcWTXp_9" d="M141.8,104.6L132.4,116.4"></path>
	<path class="st7 QKqcWTXp_10" d="M127.8,110.5L132.4,116.4"></path>
</g>
<path class="st8 QKqcWTXp_11" d="M142.4,106.1"></path>
<path class="st9 QKqcWTXp_12" d="M85.60000000000001,152.2A4.8,4.8 0,1,1 95.2,152.2A4.8,4.8 0,1,1 85.60000000000001,152.2"></path>
<path class="st2 QKqcWTXp_13" d="M161.2,65.6L152.8,65.6"></path>
<path class="st2 QKqcWTXp_14" d="M157,69.8L157,61.4"></path>
<path class="st0 QKqcWTXp_15" d="M44.3,90.1L12.3,90.1"></path>
<style>.QKqcWTXp_0{stroke-dasharray:35 37;stroke-dashoffset:36;animation:QKqcWTXp_draw 1250ms ease-in-out 0ms forwards;}.QKqcWTXp_1{stroke-dasharray:349 351;stroke-dashoffset:350;animation:QKqcWTXp_draw 1250ms ease-in-out 0ms forwards;}.QKqcWTXp_2{stroke-dasharray:9 11;stroke-dashoffset:10;animation:QKqcWTXp_draw 1250ms ease-in-out 0ms forwards;}.QKqcWTXp_3{stroke-dasharray:9 11;stroke-dashoffset:10;animation:QKqcWTXp_draw 1250ms ease-in-out 0ms forwards;}.QKqcWTXp_4{stroke-dasharray:232 234;stroke-dashoffset:233;animation:QKqcWTXp_draw 1250ms ease-in-out 0ms forwards;}.QKqcWTXp_5{stroke-dasharray:48 50;stroke-dashoffset:49;animation:QKqcWTXp_draw 1250ms ease-in-out 0ms forwards;}.QKqcWTXp_6{stroke-dasharray:92 94;stroke-dashoffset:93;animation:QKqcWTXp_draw 1250ms ease-in-out 0ms forwards;}.QKqcWTXp_7{stroke-dasharray:232 234;stroke-dashoffset:233;animation:QKqcWTXp_draw 1250ms ease-in-out 0ms forwards;}.QKqcWTXp_8{stroke-dasharray:84 86;stroke-dashoffset:85;animation:QKqcWTXp_draw 1250ms ease-in-out 0ms forwards;}.QKqcWTXp_9{stroke-dasharray:16 18;stroke-dashoffset:17;animation:QKqcWTXp_draw 1250ms ease-in-out 0ms forwards;}.QKqcWTXp_10{stroke-dasharray:8 10;stroke-dashoffset:9;animation:QKqcWTXp_draw 1250ms ease-in-out 0ms forwards;}.QKqcWTXp_11{stroke-dasharray:0 2;stroke-dashoffset:1;animation:QKqcWTXp_draw 1250ms ease-in-out 0ms forwards;}.QKqcWTXp_12{stroke-dasharray:31 33;stroke-dashoffset:32;animation:QKqcWTXp_draw 1250ms ease-in-out 0ms forwards;}.QKqcWTXp_13{stroke-dasharray:9 11;stroke-dashoffset:10;animation:QKqcWTXp_draw 1250ms ease-in-out 0ms forwards;}.QKqcWTXp_14{stroke-dasharray:9 11;stroke-dashoffset:10;animation:QKqcWTXp_draw 1250ms ease-in-out 0ms forwards;}.QKqcWTXp_15{stroke-dasharray:32 34;stroke-dashoffset:33;animation:QKqcWTXp_draw 1250ms ease-in-out 0ms forwards;}@keyframes QKqcWTXp_draw{100%{stroke-dashoffset:0;}}@keyframes QKqcWTXp_fade{0%{stroke-opacity:1;}92.66055045871559%{stroke-opacity:1;}100%{stroke-opacity:0;}}</style></svg>
