<!--?xml version="1.0" encoding="utf-8"?-->
<!-- Generator: Adobe Illustrator 19.2.0, SVG Export Plug-In . SVG Version: 6.00 Build 0)  -->
<svg version="1.1" id="Laag_1" xmlns="http://www.w3.org/2000/svg" xmlns:xlink="http://www.w3.org/1999/xlink" x="0px" y="0px" viewBox="0 0 200.7 200.7" style="" xml:space="preserve">
<style type="text/css">
	.st0{opacity:0.46;fill:none;stroke:#74CEFD;stroke-width:5;stroke-linecap:round;stroke-miterlimit:10;enable-background:new    ;}
	.st1{opacity:0.15;fill:#5CF0FF;enable-background:new    ;}
	.st2{fill:none;stroke:#74CEFD;stroke-width:4;stroke-linecap:round;stroke-linejoin:round;stroke-miterlimit:10;}
	.st3{fill:#F3FEFF;stroke:#5CF0FF;stroke-width:5;stroke-linecap:round;stroke-linejoin:round;stroke-miterlimit:10;}
	.st4{opacity:0.46;fill:none;stroke:#74CEFD;stroke-width:5;stroke-miterlimit:10;enable-background:new    ;}
	.st5{fill:none;stroke:#74CEFD;stroke-width:5;stroke-linecap:round;stroke-linejoin:round;stroke-miterlimit:10;}
	.st6{fill:#F7D2DD;stroke:#EF3774;stroke-width:5;stroke-linejoin:round;stroke-miterlimit:10;}
	
		.st7{opacity:0.67;fill:none;stroke:#FCFCFC;stroke-width:5;stroke-linecap:square;stroke-miterlimit:10;enable-background:new    ;}
	.st8{fill:none;stroke:#74CEFD;stroke-width:4;stroke-linejoin:round;stroke-miterlimit:10;}
	.st9{fill:none;stroke:#EF3774;stroke-width:4;stroke-linecap:round;stroke-linejoin:round;stroke-miterlimit:10;}
</style>
<path class="st0 XcMYbNmr_0" d="M64,105.6L29.8,105.6"></path>
<path class="st1 XcMYbNmr_1" d="M77.2,64.5c-0.3,0.6-12.3,36.7,2.9,75c15.1,38.3,111.3-20.3,107.7-46.6C184.1,66.7,95.6,22.3,77.2,64.5z"></path>
<path class="st2 XcMYbNmr_2" d="M180.7,106.9L186,100.4"></path>
<path class="st2 XcMYbNmr_3" d="M180.1,101L186.6,106.3"></path>
<path class="st3 XcMYbNmr_4" width="72.3" height="43.5" d="M59.6 71.1 L131.9 71.1 L131.9 114.6 L59.6 114.6 Z"></path>
<path class="st4 XcMYbNmr_5" d="M131.6,77.1L99.5,101.7L94,97.4"></path>
<path class="st5 XcMYbNmr_6" d="M132,71.1L95.8,98.9L59.6,71.1"></path>
<path class="st5 XcMYbNmr_7" width="72.3" height="43.5" d="M59.6 71.1 L131.9 71.1 L131.9 114.6 L59.6 114.6 Z"></path>
<path class="st6 XcMYbNmr_8" d="M118.60000000000001,113.1A13.3,13.3 0,1,1 145.20000000000002,113.1A13.3,13.3 0,1,1 118.60000000000001,113.1"></path>
<path class="st7 XcMYbNmr_9" d="M142.4,106.1"></path>
<path class="st8 XcMYbNmr_10" d="M85.60000000000001,152.2A4.8,4.8 0,1,1 95.2,152.2A4.8,4.8 0,1,1 85.60000000000001,152.2"></path>
<path class="st2 XcMYbNmr_11" d="M161.2,65.6L152.8,65.6"></path>
<path class="st2 XcMYbNmr_12" d="M157,69.8L157,61.4"></path>
<path class="st0 XcMYbNmr_13" d="M44.3,90.1L12.3,90.1"></path>
<path class="st9 XcMYbNmr_14" d="M136.1,108.9L127.9,117.2"></path>
<path class="st9 XcMYbNmr_15" d="M127.9,108.9L136.1,117.2"></path>
<style>.XcMYbNmr_0{stroke-dasharray:35 37;stroke-dashoffset:36;animation:XcMYbNmr_draw 833ms linear 0ms forwards;}.XcMYbNmr_1{stroke-dasharray:349 351;stroke-dashoffset:350;animation:XcMYbNmr_draw 833ms linear 27ms forwards;}.XcMYbNmr_2{stroke-dasharray:9 11;stroke-dashoffset:10;animation:XcMYbNmr_draw 833ms linear 55ms forwards;}.XcMYbNmr_3{stroke-dasharray:9 11;stroke-dashoffset:10;animation:XcMYbNmr_draw 833ms linear 83ms forwards;}.XcMYbNmr_4{stroke-dasharray:232 234;stroke-dashoffset:233;animation:XcMYbNmr_draw 833ms linear 111ms forwards;}.XcMYbNmr_5{stroke-dasharray:48 50;stroke-dashoffset:49;animation:XcMYbNmr_draw 833ms linear 138ms forwards;}.XcMYbNmr_6{stroke-dasharray:92 94;stroke-dashoffset:93;animation:XcMYbNmr_draw 833ms linear 166ms forwards;}.XcMYbNmr_7{stroke-dasharray:232 234;stroke-dashoffset:233;animation:XcMYbNmr_draw 833ms linear 194ms forwards;}.XcMYbNmr_8{stroke-dasharray:84 86;stroke-dashoffset:85;animation:XcMYbNmr_draw 833ms linear 222ms forwards;}.XcMYbNmr_9{stroke-dasharray:0 2;stroke-dashoffset:1;animation:XcMYbNmr_draw 833ms linear 250ms forwards;}.XcMYbNmr_10{stroke-dasharray:31 33;stroke-dashoffset:32;animation:XcMYbNmr_draw 833ms linear 277ms forwards;}.XcMYbNmr_11{stroke-dasharray:9 11;stroke-dashoffset:10;animation:XcMYbNmr_draw 833ms linear 305ms forwards;}.XcMYbNmr_12{stroke-dasharray:9 11;stroke-dashoffset:10;animation:XcMYbNmr_draw 833ms linear 333ms forwards;}.XcMYbNmr_13{stroke-dasharray:32 34;stroke-dashoffset:33;animation:XcMYbNmr_draw 833ms linear 361ms forwards;}.XcMYbNmr_14{stroke-dasharray:12 14;stroke-dashoffset:13;animation:XcMYbNmr_draw 833ms linear 388ms forwards;}.XcMYbNmr_15{stroke-dasharray:12 14;stroke-dashoffset:13;animation:XcMYbNmr_draw 833ms linear 416ms forwards;}@keyframes XcMYbNmr_draw{100%{stroke-dashoffset:0;}}@keyframes XcMYbNmr_fade{0%{stroke-opacity:1;}92.66055045871559%{stroke-opacity:1;}100%{stroke-opacity:0;}}</style></svg>
