<!--?xml version="1.0" encoding="utf-8"?-->
<!-- Generator: Adobe Illustrator 19.2.0, SVG Export Plug-In . SVG Version: 6.00 Build 0)  -->
<svg version="1.1" id="Layer_1" xmlns="http://www.w3.org/2000/svg" xmlns:xlink="http://www.w3.org/1999/xlink" x="0px" y="0px" viewBox="0 0 708.7 708.7" style="" xml:space="preserve">
<style type="text/css">
	.st0{fill:url(#SVGID_1_);}
	.st1{fill:url(#SVGID_2_);}
	.st2{fill:url(#SVGID_3_);}
	.st3{fill:url(#SVGID_4_);}
	.st4{fill:none;stroke:url(#SVGID_5_);stroke-width:2;stroke-miterlimit:10;}
	.st5{fill:url(#SVGID_6_);}
	.st6{fill:url(#SVGID_7_);}
	.st7{fill:#092231;}
	.st8{fill:#EAFFFF;}
	.st9{fill:#99BAFF;}
	.st10{opacity:0.5;fill:url(#SVGID_8_);}
	.st11{fill:url(#SVGID_9_);}
	.st12{opacity:0.2;fill:#FFFFFF;}
	.st13{fill:url(#SVGID_10_);}
	.st14{fill:none;stroke:url(#SVGID_11_);stroke-width:2;stroke-miterlimit:10;}
	.st15{fill:url(#SVGID_12_);}
	.st16{fill:url(#SVGID_13_);}
	.st17{opacity:0.25;fill:#092231;}
	.st18{fill:#BCBCBC;}
	.st19{fill:#93B4FF;}
	.st20{fill:none;stroke:#686868;stroke-width:2;stroke-miterlimit:10;}
	.st21{fill:url(#SVGID_14_);}
	.st22{fill:url(#SVGID_15_);}
	.st23{fill:url(#SVGID_16_);}
	.st24{fill:url(#SVGID_17_);}
	.st25{fill:url(#SVGID_18_);}
	.st26{fill:#92FFBE;}
	.st27{fill:url(#SVGID_19_);}
	.st28{fill:url(#SVGID_20_);}
	.st29{fill:none;stroke:url(#SVGID_21_);stroke-width:2;stroke-linejoin:round;stroke-miterlimit:10;}
	.st30{opacity:0.1;fill:#FFFFFF;}
	.st31{enable-background:new    ;}
	.st32{fill:#8B989A;}
	.st33{fill:#C7D9DC;}
	.st34{fill:#8A9799;}
	.st35{clip-path:url(#SVGID_23_);enable-background:new    ;}
	.st36{fill:#8B9799;}
	.st37{fill:#869294;}
	.st38{fill:#838F91;}
	.st39{fill:#CFE2E5;}
	.st40{fill:url(#SVGID_24_);}
	.st41{fill:#999999;}
	.st42{fill:#E8E6EE;}
	.st43{fill:none;stroke:url(#SVGID_25_);stroke-width:2;stroke-miterlimit:10;}
	.st44{fill:#FFFFFF;stroke:url(#SVGID_26_);stroke-width:3;stroke-miterlimit:10;}
	.st45{fill:#898760;}
	.st46{fill:#FFFFFF;stroke:url(#SVGID_27_);stroke-width:3;stroke-miterlimit:10;}
	.st47{fill:#FFFFFF;stroke:url(#SVGID_28_);stroke-width:3;stroke-miterlimit:10;}
	.st48{fill:#FFFFFF;stroke:url(#SVGID_29_);stroke-width:3;stroke-miterlimit:10;}
	.st49{fill:url(#SVGID_30_);}
	.st50{fill:#0A344B;}
</style>
<linearGradient id="SVGID_1_" gradientUnits="userSpaceOnUse" x1="577.6737" y1="411.9801" x2="461.4293" y2="408.2701">
	<stop offset="0" style="stop-color:#EAFFFF"></stop>
	<stop offset="1" style="stop-color:#92B4FF"></stop>
</linearGradient>
<path class="st0 MLAlADWv_0" d="M517.5,379.9l71,41c3.3,1.9,3.3,6.6,0,8.5l-21.3,12.3c-1.5,0.9-3.4,0.9-4.9,0l-72.4-41.8
	c-3.4-2-3.2-6.9,0.2-8.6l22.7-11.5C514.3,379,516,379,517.5,379.9z"></path>
<linearGradient id="SVGID_2_" gradientUnits="userSpaceOnUse" x1="464.2997" y1="386.911" x2="642.8732" y2="434.6579">
	<stop offset="0" style="stop-color:#EAFFFF"></stop>
	<stop offset="1" style="stop-color:#92B4FF"></stop>
</linearGradient>
<path class="st1 MLAlADWv_1" d="M517.5,376.2l71,41c3.3,1.9,3.3,6.6,0,8.5L567.1,438c-1.5,0.9-3.4,0.9-4.9,0l-72.4-41.8c-3.4-2-3.2-6.9,0.2-8.6
	l22.7-11.5C514.3,375.3,516,375.4,517.5,376.2z"></path>
<linearGradient id="SVGID_3_" gradientUnits="userSpaceOnUse" x1="558.8524" y1="375.2804" x2="551.6071" y2="375.5391">
	<stop offset="0" style="stop-color:#EAFFFF"></stop>
	<stop offset="1" style="stop-color:#92B4FF"></stop>
</linearGradient>
<path class="st2 MLAlADWv_2" d="M533.3,331.7L528.5,403.7L555.9,419.8L559.2,418.2L555.2,346.7Z"></path>
<linearGradient id="SVGID_4_" gradientUnits="userSpaceOnUse" x1="524.7936" y1="374.8729" x2="555.9444" y2="374.8729">
	<stop offset="0" style="stop-color:#EAFFFF"></stop>
	<stop offset="1" style="stop-color:#92B4FF"></stop>
</linearGradient>
<path class="st3 MLAlADWv_3" d="M529.6,329.9L524.8,401.9L555.9,419.8L551.6,344.9Z"></path>
<g>
	<linearGradient id="SVGID_5_" gradientUnits="userSpaceOnUse" x1="492.1199" y1="150.6043" x2="613.9138" y2="150.6043">
		<stop offset="0" style="stop-color:#EAFFFF"></stop>
		<stop offset="1" style="stop-color:#92B4FF"></stop>
	</linearGradient>
	<path class="st4 MLAlADWv_4" d="M613.4,120.9c-11.6,6.8-16.7-1.9-28.2,4.9c-11.6,6.8-6.5,15.5-18,22.3c-11.6,6.8-16.7-1.9-28.2,4.9
		c-11.6,6.8-6.5,15.5-18,22.3s-16.7-1.9-28.2,4.9"></path>
</g>
<linearGradient id="SVGID_6_" gradientUnits="userSpaceOnUse" x1="700.9361" y1="308.3584" x2="344.1921" y2="155.8035">
	<stop offset="0" style="stop-color:#EAFFFF"></stop>
	<stop offset="1" style="stop-color:#92B4FF"></stop>
</linearGradient>
<path class="st5 MLAlADWv_5" d="M415.5,57.4L696.4,219.5L696.4,435.3L415.5,273.2Z"></path>
<linearGradient id="SVGID_7_" gradientUnits="userSpaceOnUse" x1="408.9069" y1="250.5823" x2="689.2707" y2="250.5823">
	<stop offset="0" style="stop-color:#EAFFFF"></stop>
	<stop offset="1" style="stop-color:#92B4FF"></stop>
</linearGradient>
<path class="st6 MLAlADWv_6" d="M408.9,61.7L689.3,223.6L689.3,439.4L408.9,277.6Z"></path>
<path class="st7 MLAlADWv_7" d="M420.2,82.2L678.9,232.6L679.3,396.9L420.2,247.4Z"></path>
<path class="st8 MLAlADWv_8" d="M695.9,435.1L689.3,439.4L689.3,431.2Z"></path>
<path class="st9 MLAlADWv_9" d="M415.5,57.4L408.9,61.7L415.5,65.6Z"></path>
<linearGradient id="SVGID_8_" gradientUnits="userSpaceOnUse" x1="539.1776" y1="361.1263" x2="543.186" y2="353.9111">
	<stop offset="0" style="stop-color:#FFFFFF"></stop>
	<stop offset="1" style="stop-color:#000000"></stop>
</linearGradient>
<path class="st10 MLAlADWv_10" d="M528.5,347L552.5,360.5L553,369.6L527.8,356.6Z"></path>
<linearGradient id="SVGID_9_" gradientUnits="userSpaceOnUse" x1="443.034" y1="165.4116" x2="491.7747" y2="78.7614">
	<stop offset="1.395089e-03" style="stop-color:#092231"></stop>
	<stop offset="1" style="stop-color:#92B4FF"></stop>
</linearGradient>
<path class="st11 MLAlADWv_11" d="M439.2,186.4L502.7,224.2L502.4,43.8L439.2,7.3Z"></path>
<path class="st12 MLAlADWv_12" d="M533.5,169.6L595.8,205.6L595.8,242L533.5,205.6Z"></path>
<path class="st12 MLAlADWv_13" d="M627,223.6L658.1,241.6L658.1,277.9L627,259.6Z"></path>
<linearGradient id="SVGID_10_" gradientUnits="userSpaceOnUse" x1="585.152" y1="332.7985" x2="603.4634" y2="298.993">
	<stop offset="1.395089e-03" style="stop-color:#092231"></stop>
	<stop offset="1" style="stop-color:#92B4FF"></stop>
</linearGradient>
<path class="st13 MLAlADWv_14" d="M532.9,242L658.1,313.5L658.1,385.5L533.5,313.5Z"></path>
<g>
	<linearGradient id="SVGID_11_" gradientUnits="userSpaceOnUse" x1="348.0099" y1="256.1292" x2="469.8038" y2="256.1292">
		<stop offset="0" style="stop-color:#EAFFFF"></stop>
		<stop offset="1" style="stop-color:#92B4FF"></stop>
	</linearGradient>
	<path class="st14 MLAlADWv_15" d="M469.3,226.4c-11.6,6.8-16.7-1.9-28.2,4.9c-11.6,6.8-6.5,15.5-18,22.3c-11.6,6.8-16.7-1.9-28.2,4.9
		c-11.6,6.8-6.5,15.5-18,22.3c-11.6,6.8-16.7-1.9-28.2,4.9"></path>
</g>
<linearGradient id="SVGID_12_" gradientUnits="userSpaceOnUse" x1="35.1351" y1="281.1118" x2="222.1076" y2="281.1118">
	<stop offset="0" style="stop-color:#EAFFFF"></stop>
	<stop offset="1" style="stop-color:#92B4FF"></stop>
</linearGradient>
<path class="st15 MLAlADWv_16" d="M222.1,299.4L97.4,227.1L35.1,263L160.1,335.2Z"></path>
<linearGradient id="SVGID_13_" gradientUnits="userSpaceOnUse" x1="211.1383" y1="301.2232" x2="45.5642" y2="248.9991">
	<stop offset="0" style="stop-color:#EAFFFF"></stop>
	<stop offset="1" style="stop-color:#92B4FF"></stop>
</linearGradient>
<path class="st16 MLAlADWv_17" d="M222.1,293.5L97.4,221.2L35.1,257.2L160.1,329.3Z"></path>
<path class="st7 MLAlADWv_18" d="M197,284.7L99.5,230.3L51.2,258.5L145.7,313.5Z"></path>
<path class="st17 MLAlADWv_19" d="M179.2,299.1L179.2,299.1c2.1-1.2,4.8-1.2,6.9,0l0.1,0.1c4.5,2.7,4.5,9.3-0.1,11.9h0c-2.1,1.2-4.7,1.2-6.8,0
	l-0.1,0C174.6,308.3,174.6,301.8,179.2,299.1z"></path>
<path class="st18 MLAlADWv_20" d="M35.1,257.2L35.1,263L40.2,260.1Z"></path>
<path class="st19 MLAlADWv_21" d="M222.1,293.5L217.1,296.5L222.1,299.4Z"></path>
<path class="st20 MLAlADWv_22" d="M83.9,234.9L63.9,246.5"></path>
<linearGradient id="SVGID_14_" gradientUnits="userSpaceOnUse" x1="131.2065" y1="199.2197" x2="306.7689" y2="253.0775">
	<stop offset="0" style="stop-color:#EAFFFF"></stop>
	<stop offset="1" style="stop-color:#92B4FF"></stop>
</linearGradient>
<path class="st21 MLAlADWv_23" d="M315.6,245.4L190.9,173.1L128.6,209.1L253.6,281.2Z"></path>
<linearGradient id="SVGID_15_" gradientUnits="userSpaceOnUse" x1="310.7187" y1="258.1801" x2="163.1344" y2="196.6283">
	<stop offset="0" style="stop-color:#EAFFFF"></stop>
	<stop offset="1" style="stop-color:#92B4FF"></stop>
</linearGradient>
<path class="st22 MLAlADWv_24" d="M315.6,239.6L190.9,167.2L128.6,203.2L253.6,275.4Z"></path>
<path class="st7 MLAlADWv_25" d="M290.5,230.7L193,176.3L144.6,204.5L239.2,259.6Z"></path>
<path class="st17 MLAlADWv_26" d="M272.7,245.2L272.7,245.2c2.1-1.2,4.8-1.2,6.9,0l0.1,0c4.5,2.7,4.4,9.2-0.1,11.8v0c-2.1,1.2-4.7,1.2-6.8,0
	l-0.1,0C268.1,254.4,268.1,247.8,272.7,245.2z"></path>
<path class="st18 MLAlADWv_27" d="M128.6,203.2L128.6,209.1L135.2,207Z"></path>
<path class="st19 MLAlADWv_28" d="M315.6,239.6L308.3,243.8L315.6,245.4Z"></path>
<path class="st20 MLAlADWv_29" d="M177.4,180.9L157.4,192.5"></path>
<linearGradient id="SVGID_16_" gradientUnits="userSpaceOnUse" x1="88.9447" y1="263.2352" x2="55.8435" y2="227.3168">
	<stop offset="0" style="stop-color:#092231"></stop>
	<stop offset="1" style="stop-color:#92B4FF"></stop>
</linearGradient>
<path class="st23 MLAlADWv_30" d="M81.3,266.9L17.6,232.4L53,211.9L116.4,246.5Z"></path>
<path class="st12 MLAlADWv_31" d="M169.2,209L233,244.5L265.9,225.1L203.3,189.3Z"></path>
<path class="st12 MLAlADWv_32" d="M87.7,270.3L122.8,249.8L130.4,254.5L95.6,275.2Z"></path>
<path class="st12 MLAlADWv_33" d="M99.8,277.6L134.9,257.2L142.6,261.8L107.8,282.6Z"></path>
<linearGradient id="SVGID_17_" gradientUnits="userSpaceOnUse" x1="92.393" y1="411.615" x2="205.7631" y2="411.615">
	<stop offset="0" style="stop-color:#EAFFFF"></stop>
	<stop offset="1" style="stop-color:#92B4FF"></stop>
</linearGradient>
<path class="st24 MLAlADWv_34" d="M177.8,402.7c-16.8-9.4-22.4,0.6-39.1-8.8c-16.8-9.4-10.7-24.5-29.3-29.3c-0.2,0-0.4-0.1-0.6-0.1
	c-2.2-0.2-10.1-0.2-13.7,7.3c-4.3,8.7-2,17.1-2,17.1l0.2-0.3c0.6,1.4,2.8,1.9,5.1,4.2c13.6,13.3,9.7,18.5,26.2,28
	c16.5,9.5,22.2-0.5,38.7,9c16.5,9.5,10.8,19.4,27.4,28.8l15.1-27.2C189,422.1,194.6,412.1,177.8,402.7z"></path>
<linearGradient id="SVGID_18_" gradientUnits="userSpaceOnUse" x1="178.4619" y1="196.5563" x2="226.353" y2="131.0581">
	<stop offset="0" style="stop-color:#092231"></stop>
	<stop offset="1" style="stop-color:#92B4FF"></stop>
</linearGradient>
<path class="st25 MLAlADWv_35" d="M190.9,203.2L284.3,149.2L222,113.3L128.6,167.2Z"></path>
<path class="st26 MLAlADWv_36" d="M284.3,179.5"></path>
<linearGradient id="SVGID_19_" gradientUnits="userSpaceOnUse" x1="206.4843" y1="254.0096" x2="206.4843" y2="254.0096">
	<stop offset="0" style="stop-color:#595959"></stop>
	<stop offset="1" style="stop-color:#D6D6D6"></stop>
</linearGradient>
<path class="st27 MLAlADWv_37" d="M206.5,254"></path>
<linearGradient id="SVGID_20_" gradientUnits="userSpaceOnUse" x1="174.0931" y1="271.9069" x2="174.0931" y2="271.9069">
	<stop offset="0" style="stop-color:#595959"></stop>
	<stop offset="1" style="stop-color:#D6D6D6"></stop>
</linearGradient>
<path class="st28 MLAlADWv_38" d="M174.1,271.9"></path>
<linearGradient id="SVGID_21_" gradientUnits="userSpaceOnUse" x1="136.6823" y1="231.7238" x2="195.0743" y2="231.7238">
	<stop offset="0" style="stop-color:#EAFFFF"></stop>
	<stop offset="1" style="stop-color:#92B4FF"></stop>
</linearGradient>
<path class="st29 MLAlADWv_39" d="M137.7,259.7c0,0-0.6-42.4,27.9-53.2c28.5-10.7,28.5,31.7,28.5,31.7"></path>
<path class="st30 MLAlADWv_40" d="M433.1,599.1l-124.6-71.9L90.4,653.1l0,0c115.7,66.8,258.2,66.9,374,0.3l31.4-18"></path>
<path class="st30 MLAlADWv_41" d="M432.6,562.9L308,490.9L89.9,616.8l0,0c115.7,66.8,258.2,66.9,374,0.3l31.4-18"></path>
<g>
	<g>
		<g class="st31">
			<g>
				<path class="st32 MLAlADWv_42" d="M334.8,524L338.1,522.2L326.8,547.6L323.5,549.4Z"></path>
			</g>
			<g>
				<path class="st33 MLAlADWv_43" d="M337.9,515.6L341.2,513.8L366.7,527.4L363.4,529.2Z"></path>
			</g>
			<g>
				<path class="st34 MLAlADWv_44" d="M348.5,492.4L351.8,490.6L341.2,513.8L337.9,515.6Z"></path>
			</g>
			<g class="st31">
				<defs>
					<path id="SVGID_22_" class="st31 MLAlADWv_45" d="M354.2,477.4l3.3-1.8c-1.7,5-3.6,10.1-5.7,15l-3.3,1.8
						C350.6,487.5,352.5,482.4,354.2,477.4z"></path>
				</defs>
				<clipPath id="SVGID_23_">
					<use xlink:href="#SVGID_22_" style="overflow:visible;"></use>
				</clipPath>
				<g class="st35">
					<path class="st36 MLAlADWv_46" d="M354.2,477.4l3.3-1.8c-0.5,1.6-1.1,3.2-1.7,4.7l-3.3,1.8C353.1,480.6,353.7,479,354.2,477.4"></path>
					<path class="st37 MLAlADWv_47" d="M352.6,482.1l3.3-1.8c-1.3,3.4-2.6,6.9-4,10.3l-3.3,1.8C350,489,351.3,485.6,352.6,482.1"></path>
				</g>
			</g>
			<g>
				<path class="st38 MLAlADWv_48" d="M362.2,470.3l21,110.8l-11.7-6.2l-6.5-34.8l-30.1-16l-11.3,25.3l-11.3-6l36.8-80.1L362.2,470.3z
					 M337.9,515.6l25.5,13.6l-6-31.9c-1.4-7.2-2.2-13.6-2.9-19.8l-0.3-0.1c-1.7,5-3.6,10.1-5.7,15L337.9,515.6"></path>
			</g>
			<g>
				<path class="st39 MLAlADWv_49" d="M362.2,470.3L365.5,468.4L386.5,579.3L383.2,581.1Z"></path>
			</g>
			<g>
				<path class="st33 MLAlADWv_50" d="M349,463.2L352.3,461.4L365.5,468.4L362.2,470.3Z"></path>
			</g>
		</g>
	</g>
</g>
<linearGradient id="SVGID_24_" gradientUnits="userSpaceOnUse" x1="183.3462" y1="445.4908" x2="214.4977" y2="445.4908">
	<stop offset="0" style="stop-color:#EAFFFF"></stop>
	<stop offset="1" style="stop-color:#92B4FF"></stop>
</linearGradient>
<path class="st40 MLAlADWv_51" d="M183.3,445.5A15.6,15.6 0,1,1 214.5,445.5A15.6,15.6 0,1,1 183.3,445.5"></path>
<path class="st41 MLAlADWv_52" d="M204.6,443.7L224.3,456L231.8,476.2L205.2,465L194.5,449.5Z"></path>
<path class="st42 MLAlADWv_53" d="M204.6,442.7L224.3,455.1L231.8,475.2L205.2,464L194.5,448.5Z"></path>
<linearGradient id="SVGID_25_" gradientUnits="userSpaceOnUse" x1="202.2771" y1="448.749" x2="295.5575" y2="448.749">
	<stop offset="0" style="stop-color:#EAFFFF"></stop>
	<stop offset="1" style="stop-color:#92B4FF"></stop>
</linearGradient>
<path class="st43 MLAlADWv_54" d="M294.6,403.8c0,0,1,68.7-45.1,86.1c-46.2,17.4-46.2-51.3-46.2-51.3"></path>
<linearGradient id="SVGID_26_" gradientUnits="userSpaceOnUse" x1="186.5469" y1="491.9988" x2="300.8641" y2="491.9988">
	<stop offset="5.321269e-03" style="stop-color:#B3B3B3"></stop>
	<stop offset="1" style="stop-color:#8C8C8C"></stop>
</linearGradient>
<path class="st44 MLAlADWv_55" d="M300.1,459.4L187.3,524.6"></path>
<g>
	<path class="st45 MLAlADWv_56" d="M208.6,452.4L230,473.4L207.9,453.1Z"></path>
</g>
<linearGradient id="SVGID_27_" gradientUnits="userSpaceOnUse" x1="178.5983" y1="524.5663" x2="195.9956" y2="524.5663">
	<stop offset="5.321269e-03" style="stop-color:#B3B3B3"></stop>
	<stop offset="1" style="stop-color:#8C8C8C"></stop>
</linearGradient>
<path class="st46 MLAlADWv_57" d="M180.10000000000002,524.6A7.2,7.2 0,1,1 194.5,524.6A7.2,7.2 0,1,1 180.10000000000002,524.6"></path>
<linearGradient id="SVGID_28_" gradientUnits="userSpaceOnUse" x1="297.2175" y1="455.9314" x2="314.1526" y2="455.9314">
	<stop offset="5.321269e-03" style="stop-color:#B3B3B3"></stop>
	<stop offset="1" style="stop-color:#8C8C8C"></stop>
</linearGradient>
<path class="st47 MLAlADWv_58" d="M298.7,455.9A7,7 0,1,1 312.7,455.9A7,7 0,1,1 298.7,455.9"></path>
<linearGradient id="SVGID_29_" gradientUnits="userSpaceOnUse" x1="235.5115" y1="488.0412" x2="264.2018" y2="488.0412">
	<stop offset="5.321269e-03" style="stop-color:#B3B3B3"></stop>
	<stop offset="1" style="stop-color:#8C8C8C"></stop>
</linearGradient>
<path class="st48 MLAlADWv_59" d="M250.5,480.2L261.6,488.6L250.5,495.9L238.3,487.3Z"></path>
<linearGradient id="SVGID_30_" gradientUnits="userSpaceOnUse" x1="297.9349" y1="546.6745" x2="309.235" y2="546.6745">
	<stop offset="5.321269e-03" style="stop-color:#FF3DFF"></stop>
	<stop offset="1" style="stop-color:#5AD6D6"></stop>
</linearGradient>
<path class="st49 MLAlADWv_60" d="M297.9,543.5L309.2,549.9"></path>
<path class="st50 MLAlADWv_61" d="M339.1,472.6L58.7,634.8"></path>
<style>.MLAlADWv_0{stroke-dasharray:247 249;stroke-dashoffset:248;animation:MLAlADWv_draw 800ms ease-in-out 0ms forwards;}.MLAlADWv_1{stroke-dasharray:247 249;stroke-dashoffset:248;animation:MLAlADWv_draw 800ms ease-in-out 6ms forwards;}.MLAlADWv_2{stroke-dasharray:206 208;stroke-dashoffset:207;animation:MLAlADWv_draw 800ms ease-in-out 13ms forwards;}.MLAlADWv_3{stroke-dasharray:210 212;stroke-dashoffset:211;animation:MLAlADWv_draw 800ms ease-in-out 19ms forwards;}.MLAlADWv_4{stroke-dasharray:147 149;stroke-dashoffset:148;animation:MLAlADWv_draw 800ms ease-in-out 26ms forwards;}.MLAlADWv_5{stroke-dasharray:1081 1083;stroke-dashoffset:1082;animation:MLAlADWv_draw 800ms ease-in-out 32ms forwards;}.MLAlADWv_6{stroke-dasharray:1080 1082;stroke-dashoffset:1081;animation:MLAlADWv_draw 800ms ease-in-out 39ms forwards;}.MLAlADWv_7{stroke-dasharray:928 930;stroke-dashoffset:929;animation:MLAlADWv_draw 800ms ease-in-out 45ms forwards;}.MLAlADWv_8{stroke-dasharray:24 26;stroke-dashoffset:25;animation:MLAlADWv_draw 800ms ease-in-out 52ms forwards;}.MLAlADWv_9{stroke-dasharray:24 26;stroke-dashoffset:25;animation:MLAlADWv_draw 800ms ease-in-out 59ms forwards;}.MLAlADWv_10{stroke-dasharray:75 77;stroke-dashoffset:76;animation:MLAlADWv_draw 800ms ease-in-out 65ms forwards;}.MLAlADWv_11{stroke-dasharray:507 509;stroke-dashoffset:508;animation:MLAlADWv_draw 800ms ease-in-out 72ms forwards;}.MLAlADWv_12{stroke-dasharray:217 219;stroke-dashoffset:218;animation:MLAlADWv_draw 800ms ease-in-out 78ms forwards;}.MLAlADWv_13{stroke-dasharray:145 147;stroke-dashoffset:146;animation:MLAlADWv_draw 800ms ease-in-out 85ms forwards;}.MLAlADWv_14{stroke-dasharray:432 434;stroke-dashoffset:433;animation:MLAlADWv_draw 800ms ease-in-out 91ms forwards;}.MLAlADWv_15{stroke-dasharray:147 149;stroke-dashoffset:148;animation:MLAlADWv_draw 800ms ease-in-out 98ms forwards;}.MLAlADWv_16{stroke-dasharray:432 434;stroke-dashoffset:433;animation:MLAlADWv_draw 800ms ease-in-out 104ms forwards;}.MLAlADWv_17{stroke-dasharray:432 434;stroke-dashoffset:433;animation:MLAlADWv_draw 800ms ease-in-out 111ms forwards;}.MLAlADWv_18{stroke-dasharray:336 338;stroke-dashoffset:337;animation:MLAlADWv_draw 800ms ease-in-out 118ms forwards;}.MLAlADWv_19{stroke-dasharray:44 46;stroke-dashoffset:45;animation:MLAlADWv_draw 800ms ease-in-out 124ms forwards;}.MLAlADWv_20{stroke-dasharray:18 20;stroke-dashoffset:19;animation:MLAlADWv_draw 800ms ease-in-out 131ms forwards;}.MLAlADWv_21{stroke-dasharray:18 20;stroke-dashoffset:19;animation:MLAlADWv_draw 800ms ease-in-out 137ms forwards;}.MLAlADWv_22{stroke-dasharray:24 26;stroke-dashoffset:25;animation:MLAlADWv_draw 800ms ease-in-out 144ms forwards;}.MLAlADWv_23{stroke-dasharray:432 434;stroke-dashoffset:433;animation:MLAlADWv_draw 800ms ease-in-out 150ms forwards;}.MLAlADWv_24{stroke-dasharray:433 435;stroke-dashoffset:434;animation:MLAlADWv_draw 800ms ease-in-out 157ms forwards;}.MLAlADWv_25{stroke-dasharray:337 339;stroke-dashoffset:338;animation:MLAlADWv_draw 800ms ease-in-out 163ms forwards;}.MLAlADWv_26{stroke-dasharray:44 46;stroke-dashoffset:45;animation:MLAlADWv_draw 800ms ease-in-out 170ms forwards;}.MLAlADWv_27{stroke-dasharray:21 23;stroke-dashoffset:22;animation:MLAlADWv_draw 800ms ease-in-out 177ms forwards;}.MLAlADWv_28{stroke-dasharray:22 24;stroke-dashoffset:23;animation:MLAlADWv_draw 800ms ease-in-out 183ms forwards;}.MLAlADWv_29{stroke-dasharray:24 26;stroke-dashoffset:25;animation:MLAlADWv_draw 800ms ease-in-out 190ms forwards;}.MLAlADWv_30{stroke-dasharray:227 229;stroke-dashoffset:228;animation:MLAlADWv_draw 800ms ease-in-out 196ms forwards;}.MLAlADWv_31{stroke-dasharray:223 225;stroke-dashoffset:224;animation:MLAlADWv_draw 800ms ease-in-out 203ms forwards;}.MLAlADWv_32{stroke-dasharray:100 102;stroke-dashoffset:101;animation:MLAlADWv_draw 800ms ease-in-out 209ms forwards;}.MLAlADWv_33{stroke-dasharray:100 102;stroke-dashoffset:101;animation:MLAlADWv_draw 800ms ease-in-out 216ms forwards;}.MLAlADWv_34{stroke-dasharray:317 319;stroke-dashoffset:318;animation:MLAlADWv_draw 800ms ease-in-out 222ms forwards;}.MLAlADWv_35{stroke-dasharray:360 362;stroke-dashoffset:361;animation:MLAlADWv_draw 800ms ease-in-out 229ms forwards;}.MLAlADWv_36{stroke-dasharray:0 2;stroke-dashoffset:1;animation:MLAlADWv_draw 800ms ease-in-out 236ms forwards;}.MLAlADWv_37{stroke-dasharray:0 2;stroke-dashoffset:1;animation:MLAlADWv_draw 800ms ease-in-out 242ms forwards;}.MLAlADWv_38{stroke-dasharray:0 2;stroke-dashoffset:1;animation:MLAlADWv_draw 800ms ease-in-out 249ms forwards;}.MLAlADWv_39{stroke-dasharray:116 118;stroke-dashoffset:117;animation:MLAlADWv_draw 800ms ease-in-out 255ms forwards;}.MLAlADWv_40{stroke-dasharray:824 826;stroke-dashoffset:825;animation:MLAlADWv_draw 800ms ease-in-out 262ms forwards;}.MLAlADWv_41{stroke-dasharray:824 826;stroke-dashoffset:825;animation:MLAlADWv_draw 800ms ease-in-out 268ms forwards;}.MLAlADWv_42{stroke-dasharray:64 66;stroke-dashoffset:65;animation:MLAlADWv_draw 800ms ease-in-out 275ms forwards;}.MLAlADWv_43{stroke-dasharray:66 68;stroke-dashoffset:67;animation:MLAlADWv_draw 800ms ease-in-out 281ms forwards;}.MLAlADWv_44{stroke-dasharray:59 61;stroke-dashoffset:60;animation:MLAlADWv_draw 800ms ease-in-out 288ms forwards;}.MLAlADWv_45{stroke-dasharray:40 42;stroke-dashoffset:41;animation:MLAlADWv_draw 800ms ease-in-out 295ms forwards;}.MLAlADWv_46{stroke-dasharray:18 20;stroke-dashoffset:19;animation:MLAlADWv_draw 800ms ease-in-out 301ms forwards;}.MLAlADWv_47{stroke-dasharray:30 32;stroke-dashoffset:31;animation:MLAlADWv_draw 800ms ease-in-out 308ms forwards;}.MLAlADWv_48{stroke-dasharray:463 465;stroke-dashoffset:464;animation:MLAlADWv_draw 800ms ease-in-out 314ms forwards;}.MLAlADWv_49{stroke-dasharray:234 236;stroke-dashoffset:235;animation:MLAlADWv_draw 800ms ease-in-out 321ms forwards;}.MLAlADWv_50{stroke-dasharray:38 40;stroke-dashoffset:39;animation:MLAlADWv_draw 800ms ease-in-out 327ms forwards;}.MLAlADWv_51{stroke-dasharray:99 101;stroke-dashoffset:100;animation:MLAlADWv_draw 800ms ease-in-out 334ms forwards;}.MLAlADWv_52{stroke-dasharray:105 107;stroke-dashoffset:106;animation:MLAlADWv_draw 800ms ease-in-out 340ms forwards;}.MLAlADWv_53{stroke-dasharray:105 107;stroke-dashoffset:106;animation:MLAlADWv_draw 800ms ease-in-out 347ms forwards;}.MLAlADWv_54{stroke-dasharray:188 190;stroke-dashoffset:189;animation:MLAlADWv_draw 800ms ease-in-out 354ms forwards;}.MLAlADWv_55{stroke-dasharray:131 133;stroke-dashoffset:132;animation:MLAlADWv_draw 800ms ease-in-out 360ms forwards;}.MLAlADWv_56{stroke-dasharray:61 63;stroke-dashoffset:62;animation:MLAlADWv_draw 800ms ease-in-out 367ms forwards;}.MLAlADWv_57{stroke-dasharray:46 48;stroke-dashoffset:47;animation:MLAlADWv_draw 800ms ease-in-out 373ms forwards;}.MLAlADWv_58{stroke-dasharray:44 46;stroke-dashoffset:45;animation:MLAlADWv_draw 800ms ease-in-out 380ms forwards;}.MLAlADWv_59{stroke-dasharray:57 59;stroke-dashoffset:58;animation:MLAlADWv_draw 800ms ease-in-out 386ms forwards;}.MLAlADWv_60{stroke-dasharray:13 15;stroke-dashoffset:14;animation:MLAlADWv_draw 800ms ease-in-out 393ms forwards;}.MLAlADWv_61{stroke-dasharray:324 326;stroke-dashoffset:325;animation:MLAlADWv_draw 800ms ease-in-out 400ms forwards;}@keyframes MLAlADWv_draw{100%{stroke-dashoffset:0;}}@keyframes MLAlADWv_fade{0%{stroke-opacity:1;}92.5925925925926%{stroke-opacity:1;}100%{stroke-opacity:0;}}</style></svg>
