<?xml version="1.0" encoding="utf-8"?>
<!-- Generator: Adobe Illustrator 19.2.0, SVG Export Plug-In . SVG Version: 6.00 Build 0)  -->
<svg version="1.1" id="Layer_1" xmlns="http://www.w3.org/2000/svg" xmlns:xlink="http://www.w3.org/1999/xlink" x="0px" y="0px"
	 viewBox="0 0 141.7 141.7" style="enable-background:new 0 0 141.7 141.7;" xml:space="preserve">
<style type="text/css">
	.st0{clip-path:url(#SVGID_2_);}
	.st1{clip-path:url(#SVGID_4_);fill:#E8FDE9;}
	.st2{fill:none;stroke:#979797;stroke-miterlimit:10;}
	.st3{clip-path:url(#SVGID_6_);}
	.st4{clip-path:url(#SVGID_8_);fill:#68DB9E;}
	.st5{clip-path:url(#SVGID_10_);}
	.st6{clip-path:url(#SVGID_12_);fill:#9AEFBE;}
	.st7{clip-path:url(#SVGID_14_);}
	.st8{clip-path:url(#SVGID_16_);fill:#DDFFED;}
	.st9{clip-path:url(#SVGID_18_);}
	.st10{clip-path:url(#SVGID_20_);fill:#68CA96;}
</style>
<g>
	<defs>
		<circle id="SVGID_1_" cx="73.5" cy="70.2" r="64"/>
	</defs>
	<clipPath id="SVGID_2_">
		<use xlink:href="#SVGID_1_"  style="overflow:visible;"/>
	</clipPath>
	<g class="st0">
		<defs>
			<rect id="SVGID_3_" x="-532.5" y="-404.8" width="1440" height="1024"/>
		</defs>
		<clipPath id="SVGID_4_">
			<use xlink:href="#SVGID_3_"  style="overflow:visible;"/>
		</clipPath>
		<rect x="4.5" y="1.2" class="st1" width="138" height="138"/>
	</g>
</g>
<g>
	<path class="st2" d="M61.5,101.2"/>
</g>
<g>
	<defs>
		<polygon id="SVGID_5_" points="64.7,89.2 61.5,105.9 87.3,105.9 84.1,89.2 		"/>
	</defs>
	<clipPath id="SVGID_6_">
		<use xlink:href="#SVGID_5_"  style="overflow:visible;"/>
	</clipPath>
	<g class="st3">
		<defs>
			<rect id="SVGID_7_" x="-532.5" y="-404.8" width="1440" height="1024"/>
		</defs>
		<clipPath id="SVGID_8_">
			<use xlink:href="#SVGID_7_"  style="overflow:visible;"/>
		</clipPath>
		<rect x="56.5" y="84.2" class="st4" width="35.9" height="26.6"/>
	</g>
</g>
<g>
	<defs>
		<path id="SVGID_9_" d="M42.5,42.2h63c2.8,0,5,2.2,5,5v38c0,2.8-2.2,5-5,5h-63c-2.8,0-5-2.2-5-5v-38C37.5,44.5,39.7,42.2,42.5,42.2
			z"/>
	</defs>
	<clipPath id="SVGID_10_">
		<use xlink:href="#SVGID_9_"  style="overflow:visible;"/>
	</clipPath>
	<g class="st5">
		<defs>
			<rect id="SVGID_11_" x="-532.5" y="-404.8" width="1440" height="1024"/>
		</defs>
		<clipPath id="SVGID_12_">
			<use xlink:href="#SVGID_11_"  style="overflow:visible;"/>
		</clipPath>
		<rect x="32.5" y="37.2" class="st6" width="83" height="58"/>
	</g>
</g>
<g>
	<defs>
		<path id="SVGID_13_" d="M42.5,45.2h63c1.1,0,2,0.9,2,2v32h-67v-32C40.5,46.1,41.4,45.2,42.5,45.2z"/>
	</defs>
	<clipPath id="SVGID_14_">
		<use xlink:href="#SVGID_13_"  style="overflow:visible;"/>
	</clipPath>
	<g class="st7">
		<defs>
			<rect id="SVGID_15_" x="-532.5" y="-404.8" width="1440" height="1024"/>
		</defs>
		<clipPath id="SVGID_16_">
			<use xlink:href="#SVGID_15_"  style="overflow:visible;"/>
		</clipPath>
		<rect x="35.5" y="40.2" class="st8" width="77" height="44"/>
	</g>
</g>
<g>
	<defs>
		<rect id="SVGID_17_" x="53.5" y="105.2" width="41" height="2"/>
	</defs>
	<clipPath id="SVGID_18_">
		<use xlink:href="#SVGID_17_"  style="overflow:visible;"/>
	</clipPath>
	<g class="st9">
		<defs>
			<rect id="SVGID_19_" x="-532.5" y="-404.8" width="1440" height="1024"/>
		</defs>
		<clipPath id="SVGID_20_">
			<use xlink:href="#SVGID_19_"  style="overflow:visible;"/>
		</clipPath>
		<rect x="48.5" y="100.2" class="st10" width="51" height="12"/>
	</g>
</g>
</svg>
